<svg id="svg__skills" xmlns="http://www.w3.org/2000/svg" viewBox="0 0 266.8 339.6">
                            <path class="st3" fill="#FFFFFF" d="M222.8,96.2c-0.6-14.4-8.8-27.2-21.1-33c-5.5-12.7-17.5-22-32.4-22.3c-11.7-4.9-25.7-6.1-37.8-6.8
                                c-6.3-0.4-12.7-0.5-19,0.2c-12.2,1.3-21.3,4-32.4,9.4c-7.4,3.6-14.2,7.9-20.5,13.2c-3.7,3.1-6.8,7.2-9.2,11.3
                                c-1.6,2.7-2.8,5.5-3.6,8.4C43,81,40.1,86.6,38.8,91.2c-2.4,8.7-1.3,20.4,3.7,28.1c0.7,1,1.4,2,2.1,3c-0.1,1.2-0.1,2.4-0.1,3.7
                                c0.9,19.8,16,36.5,36.5,36.5c0.3,0,0.6,0,0.9,0c-2.3,3.6-2.7,8.5,0.8,11.7c3.3,3,9.5,3.9,12.7,0c3.3-4,6.5-8,9.8-12
                                c1.4-1.7,2.3-3.7,2.5-5.8c1.3,0.2,2.7,0.2,4.1,0.2c8,0,15.9-3,22.2-7.9c3.6,1.2,7.4,1.9,11.5,1.9c13,0,25.6-7.8,32-18.9
                                c2.8,0.7,5.7,1.1,8.7,1.1C205.4,132.7,223.7,115.9,222.8,96.2z" style="fill-opacity: 1; stroke-opacity: 1; transition: fill-opacity 1s ease-in-out, stroke-opacity 1s ease-in-out; stroke-dasharray: 527.408, 527.408; stroke-dashoffset: 0;"></path>
                            <path class="st4" fill="#8C8C8C" stroke="#8C8C8C" stroke-width="2px" stroke-miterlimit="10" d="M120.1,160.8c-1.3-0.3-2.7-0.4-3.9-0.9c-1.2-0.4-1.8,0-2.3,0.9c-0.4,0.4-0.7,0.8-1.1,1.2
                                    c-0.8,0.9-1.6,1.7-2.4,2.6c-0.5,0.5-1,1.1-1.6,1.6c-0.9,0.7-1.6,1.5-2.3,2.4c-0.4,0.5-0.9,1-1.3,1.4c-0.9,0.9-1.7,1.8-2.6,2.8
                                    c-0.4,0.4-0.8,0.8-1.1,1.2c-1.1,0.9-2,1.9-2.9,3.1c-0.4,0.4-0.7,0.8-1.1,1.2c-0.7,0.8-1.5,1.6-2.2,2.4c-0.5,0.5-1,1-1.5,1.6
                                    c-0.8,0.7-1.6,1.5-2.4,2.2c-0.5,0.2-1,0.3-1.5,0.5c-2.3-0.4-4.7-0.8-7-1.2c-0.9-0.2-1.8-0.4-2.7-0.7c-1.5-0.6-2.5-1.7-3.2-3.2
                                    c0-0.8,0-1.6,0-2.3c0.5-2.7,1.1-5.3,1.6-8c0.2-0.8,0.2-1.5-1-1.4c-4,0.2-7.9-0.7-11.8-1.7c-1-0.3-2.1-0.7-3.1-1
                                    c-10.9-5.2-20-12.2-24.2-24.1c-0.3-1-0.6-2.1-0.9-3.1c-0.3-2.2-0.7-4.4-1-6.6c0-0.6,0-1.3,0-1.9c0.3-1.4,0.6-2.7,0.9-4.1
                                    c0.3-0.6,0.5-1.1,0.8-1.7c0.8-1,1.5-2.1,2.3-3.1c1.4-0.8,1.4-1.5,0-2.4c-2.9-1.9-5-4.6-7-7.4c-1.3-2.2-1.7-4.7-2.7-7
                                    c0-2.5,0-4.9,0-7.4c0.6-2.3,1.2-4.7,1.9-6.9c0.7-2,1.6-3.9,2.4-5.9c0.4-0.3,0.6-0.7,0.7-1.2c0.8-1,1.6-2,2.4-3.1
                                    c0.4-0.4,0.8-0.8,1.2-1.2c1-0.8,2.1-1.5,3.1-2.3c0.5-0.3,1-0.5,1.6-0.8c0.9-1.3,1.1-2.8,1.5-4.3c0.2-0.5,0.5-1,0.7-1.6
                                    c0.5-1.2,1.1-2.3,1.6-3.5c0.3-0.5,0.6-1,0.9-1.5c0.8-1.2,1.6-2.3,2.4-3.5c0.3-0.4,0.7-0.8,1-1.2c0.8-0.9,1.6-1.8,2.4-2.6
                                    c0.4-0.4,0.8-0.8,1.2-1.2c0.9-0.8,1.8-1.6,2.6-2.4c0.5-0.2,0.9-0.6,1.2-1.1c1.2-0.7,2.2-1.7,3.2-2.6c0.5-0.4,1-0.9,1.5-1.3
                                    c0.9-0.7,1.8-1.3,2.7-2c0.5-0.4,1-0.7,1.6-1.1c1-0.7,2.1-1.3,3.1-2c0.6-0.3,1.2-0.7,1.8-1c1.1-0.6,2.2-1.1,3.3-1.7
                                    c0.4-0.2,0.8-0.4,1.2-0.6c1.5-0.6,3-1.3,4.4-1.9c0.4-0.1,0.8,0,1-0.4c1.5-0.4,2.9-0.9,4.3-1.6c0.6,0,1.1-0.2,1.5-0.5
                                    c1.4-0.4,2.9-0.9,4.3-1.3c0.5-0.1,1.1-0.1,1.5-0.5c1.6-0.2,3.1-0.7,4.7-1.2c0.5-0.1,1-0.3,1.6-0.4c1.6-0.4,3.1-0.8,4.7-1.2
                                    c0.5-0.1,1-0.3,1.6-0.4c1.4-0.4,2.8-0.7,4.3-1.1c0.7-0.2,1.3-0.4,2-0.5c1.4-0.4,2.8-0.7,4.2-1.1c0.7-0.2,1.3-0.3,2-0.5
                                    c1.6-0.3,3.1-0.6,4.7-0.9c0.6-0.1,1.3-0.2,1.9-0.3c1.7-0.2,3.4-0.4,5.1-0.5c0.6-0.1,1.3-0.1,1.9-0.2c1.9,0,3.9,0,5.8,0
                                    c0.6,0,1.3,0,1.9,0.1c2.2,0.3,4.4,0.5,6.6,0.8c0.7,0.4,1.5,0.4,2.3,0.4c2.7,0.8,5.4,1.5,8.2,2.3c1,0.4,2,0.8,3.1,1.2
                                    c2.7,1.5,5.5,2.8,8,4.6c1,0.7,2.2,0.6,3.3,0.7c0.8,0.1,1.6,0.3,2.3,0.4c2.5,0.6,4.9,1.2,7.4,1.8c1,0.3,2.1,0.6,3.1,1
                                    c3.7,1.5,7.4,3.2,10.8,5.3c4.8,3.3,8.9,7.3,12.2,12.1c1.6,2.7,3.2,5.5,4.3,8.4c0.2,0.5,0.4,0.9,0.9,1.2
                                    c8.1,4.9,12.1,12.6,14.6,21.3c0.6,2,0.5,4.2,1.5,6.1c0,3.5,0,7,0,10.5c-0.3,0.1-0.4,0.3-0.4,0.6c-0.9,6.3-3.4,11.9-7.4,16.9
                                    c-0.4,0.4-0.7,0.8-1.1,1.2c-0.9,0.8-1.9,1.7-2.8,2.5c-0.4,0.3-0.7,0.6-1.1,0.9c-1.9,0.6-1.7,2.6-2.5,3.9
                                    c-0.2,0.4-0.4,0.8-0.7,1.2c-0.7,0.9-1.5,1.9-2.2,2.8c-0.5,0.5-1.1,1-1.6,1.5c-1.1,0.8-2.2,1.5-3.3,2.3c-0.4,0.1-0.7,0.2-0.9,0.5
                                    c-1.3,0.5-2.6,1-3.9,1.5c-0.5,0.1-1.1,0-1.5,0.4c-1.8,0.2-3.6,0.3-5.4,0.5c-0.6,0-1.3,0-1.9,0c-2.3-0.4-4.7-0.8-7-1.1
                                    c-0.9-0.4-1.8-0.7-2.7-0.7c-3.5-1.6-3.5-1.6-4.4,2.1c0,0.1,0,0.1,0,0.2c-0.2,0.5-0.4,1.1-0.6,1.6c-0.5,1-1.1,2-1.6,3
                                    c-0.4,0.5-0.8,1.1-1.2,1.6c-0.9,0.9-1.8,1.8-2.7,2.7c-0.4,0.4-0.9,0.7-1.3,1.1c-1,0.7-2,1.4-2.9,2.1c-0.6,0.3-1.2,0.7-1.8,1
                                    c-1.4,0.6-2.7,1.3-4.1,1.9c-0.3,0.1-0.6,0.2-0.9,0.3c-1.4,0.5-2.8,0.9-4.2,1.4c-0.5,0-1.1,0-1.6,0.4c-1.7,0.3-3.4,0.5-5,0.8
                                    c-0.6,0-1.3,0.1-1.9,0.1c-1.9,0-3.9,0.1-5.8,0.1c-0.7,0-1.3-0.1-2-0.1c-2.7-0.2-5.2-0.9-7.4-2.5c-0.8-0.6-1.4-0.6-1.8,0.4
                                    c-0.3,0.3-0.5,0.5-0.8,0.8c-1,0.7-2,1.4-2.9,2c-0.5,0.2-1,0.5-1.6,0.7c-1.6,0.3-3.1,0.5-4.7,0.8
                                    C121.4,160.8,120.7,160.8,120.1,160.8z M80.4,49.3c-0.5,0.1-0.9,0.3-1.2,0.7c-1.4,0.5-2.7,1.3-4,2.2c-0.5,0.3-1,0.6-1.4,1
                                    c-1.2,0.6-2.2,1.4-3.2,2.3c-0.3,0.2-0.5,0.4-0.8,0.7c-1.3,0.8-2.4,1.8-3.4,2.9c-0.5,0.2-0.9,0.6-1.3,1.1c-1,0.7-1.9,1.4-2.7,2.4
                                    c-0.6,0.4-1.2,0.9-1.5,1.6c-0.9,0.8-1.7,1.7-2.3,2.7c-0.5,0.4-0.9,0.9-1.1,1.5c-0.7,0.9-1.3,1.8-1.7,2.9
                                    c-1.7,2.9-1.7,2.9,1.3,4.1c1.1,0.4,2.1,1,3.1,1.5c2,1.6,4,3.3,5.4,5.4c0.1,0.8,0.3,1.6,0.4,2.3c-0.3,1.2-0.8,2.2-1.6,3.1
                                    c-0.6,0.3-1.2,0.7-1.7,1c-2.3,0.4-4.1-0.3-5.6-2.1c-1.1-1.4-2.5-2.5-4.4-2.9c-0.7-0.5-1.5-0.4-2.4-0.3c-1.7-0.2-3.1,0.5-4.3,1.6
                                    c-0.7,0.4-1.2,0.9-1.6,1.6c-1.1,1.1-1.9,2.4-2.3,3.9c-1,1.7-1.4,3.5-1.8,5.4c-0.1,0.5-0.2,1.1-0.2,1.6c-0.6,2.3-0.5,4.5,0.4,6.6
                                    c0.6,3,2.7,4.9,4.9,6.7c1.4,1.1,2.8,2.1,4.4,2.7c1.9,1.7,3.9,0.2,5.9,0.2c0.8,0,1.6,0.1,2.4-0.3c1.8,0.1,3.7,0.1,5.5,0.2
                                    c0.8,0,1.5,0.1,2.3,0.1c2.3,0.4,4.7,0.8,7,1.2c0.7,0.3,1.5,0.5,2.3,0.5c2.7,0.8,5.4,1.6,8.2,2.4c1,0.5,2,0.9,3.1,1.1
                                    c3.2,1.3,6.5,2.6,9.7,3.9c1.1,0.7,2.3,1.2,3.5,1.6c4.8,2.6,9.6,5.2,14.1,8.3c0.4,0.4,0.9,0.9,1.3,1.3c1,1.6,0.9,3.3,0.2,5.1
                                    c-0.3,0.3-0.5,0.7-0.8,1c-1.3,0.9-2.7,1.4-4.2,1.2c-1.7-0.5-2.9-2-4.6-2.7c-4-2.8-8.3-5.1-12.9-6.9c-1.1-0.7-2.2-1.2-3.5-1.5
                                    c-3-1.5-6.1-2.6-9.3-3.5c-0.8-0.5-1.7-0.7-2.7-0.8c-2.5-1-5.1-1.6-7.8-1.9c-0.7-0.4-1.5-0.4-2.3-0.4c-2.2-0.5-4.4-0.7-6.6-0.7
                                    c-0.7,0-1.3,0-2,0.1c-1.7,0-3.4,0.2-5,0.7c-0.5,0.2-1.1,0.4-1.6,0.6c-1.4,0.3-2.5,1-3.5,2c-0.7,0.4-1.2,0.9-1.5,1.6
                                    c-1.4,1.3-1.3,3-1.1,4.7c0,1,0.2,1.9,0.5,2.8c1.3,5.6,3.9,10.5,8.3,14.3c4.2,3.6,8.6,6.6,14,8.1c0.9,0.3,1.8,0.6,2.8,0.6
                                    c2,0.6,4.1,0.8,6.2,0.7c0.8,0.1,1.6,0.1,2.4-0.2c1.6,0,3.2-0.2,4.7-0.8c0.5-0.1,1.1,0,1.5-0.5c1.8-0.3,3.4-1,5-1.8
                                    c0.3-0.1,0.6-0.3,0.9-0.4c1.4-0.4,2.7-1.4,4.2-1.3c2.1,0.5,3.6,1.6,4.1,3.8c0.5,2.2-0.6,3.8-2.3,5.1c-2.9,1.3-5.8,2.8-8.9,3.7
                                    c-0.3,0.1-0.7,0.3-0.7,0.5c-0.6,2.7-1.1,5.3-1.6,8c0.2,0.1,0.4,0.2,0.6,0.3c3.7-4,7.5-8.1,11.2-12.1c1.7-1.5,3.2-3.2,4.6-4.9
                                    c1.1-0.9,2-1.9,2.9-3.1c0.4-0.4,0.7-0.8,1.1-1.2c0.7-0.8,1.5-1.6,2.2-2.4c0.6-0.5,1.1-1,1.7-1.5c1.4-0.5,2.8-0.7,4.2-0.2
                                    c0.9,0.4,1.9,0.9,3,0.9c2,0.7,4,1.1,5.9-0.3c0.5-0.3,0.9-0.7,1.1-1.3c0.9-1,1.1-2.4,1.7-3.7c0.4-0.4,0.8-0.9,1.2-1.3
                                    c1.3-0.7,2.6-1.1,4.1-0.7c1.9,0.8,3.1,2.4,4.6,3.6c0.9,0.6,1.6,1.4,2.7,1.7c2,0.9,4.1,0.5,6.2,0.5c0.6,0,1.3,0,1.9-0.1
                                    c1.7,0.1,3.4-0.2,5.1-0.7c0.5,0,1.1,0,1.6-0.4c2.1-0.3,4-0.9,5.8-2c1.5-0.4,2.8-1.2,3.9-2.2c0.6-0.3,1.2-0.7,1.6-1.3
                                    c1.1-0.8,2.2-1.8,2.7-3.1c0.4-0.3,0.5-0.7,0.7-1.2c0.7-1.5,1.2-3,1.3-4.7c0.4-0.5,0.4-1,0.4-1.6c0.4-1.4,0.8-2.8,1.2-4.3
                                    c0.4-0.4,0.7-0.8,1.1-1.2c1.1-0.7,2.3-1,3.6-1c1.2,0.5,2.3,0.9,3.5,1.4c2.7,1.5,5.6,2.4,8.7,3c0.9,0.2,1.7,0.5,2.6,0.4
                                    c1.9,0.4,3.9,0.6,5.8,0.1c0.5,0,1.1,0.1,1.6-0.3c1.6-0.2,3.1-0.9,4.3-2c0.6-0.2,1-0.6,1.3-1.1c1.2-1.1,2-2.3,2.1-4
                                    c0.2-0.6,0.3-1.3,0.1-2c0.1-2.1-1.6-3.8-1-6c0.3-0.6,0.6-1.2,1-1.8c0.8-0.7,1.7-1.3,2.8-1.6c0.8,0,1.5,0.1,2.3,0.1
                                    c1.2,0.7,2.4,1.5,2.9,3c1.2-1.2,2.1-2.3,2.6-3.8c0.4-0.4,0.7-1,0.8-1.6c0.8-1.5,1.4-3,1.5-4.7c0.3-0.5,0.4-1,0.4-1.6
                                    c0.4-1.8,0.5-3.6,0.4-5.4c0-0.8-0.1-1.5-0.1-2.3c-0.2-2.4-0.5-4.8-1.4-7c-0.1-1.1-0.5-2.2-1-3.1c-1.5-4.3-3.9-8-7.6-10.7
                                    c-1.5-1.1-3.1-1.9-5-1.7c-0.6,0-1.3,0.1-1.9,0.1c-3.8-0.2-5.2-1.7-5.4-5.5c0.1-0.4,0.3-0.8,0.4-1.2c0.7-1,1.5-1.9,2.7-2.4
                                    c1.1-0.1,0.9-0.6,0.5-1.3c-3.2-5.3-7.4-9.5-13-12.2c-2.6-1.7-5.4-2.6-8.6-3.6c0.5,1.3,0.9,2.2,1.3,3.2c0,0.6,0,1.3,0,1.9
                                    c-0.5,1-1,2.1-1.9,2.8c-0.4,0.2-0.8,0.4-1.2,0.7c-3.9,0.2-4.7-0.3-6.3-3.9c-2-4.5-5.5-7.5-9.5-10.1c-2.3-1.5-4.8-2.8-7.5-3.5
                                    c-0.8-0.5-1.7-0.7-2.7-0.9c-2.4-0.9-4.9-1.4-7.5-1.6c-0.7-0.3-1.5-0.3-2.3-0.2c-2.1-0.5-4.1-0.4-6.2-0.3c-0.7,0-1.3,0-2,0.1
                                    c-1.7,0.1-3.4,0.2-5,0.4c-0.7,0.1-1.3,0.2-2,0.3c-1.7,0-3.4,0.4-5,0.8c-0.5,0.1-1,0.3-1.6,0.4c-1.6,0.2-3.1,0.6-4.7,1.2
                                    c-0.5,0.1-1,0.3-1.6,0.4c-1.6,0.4-3.1,0.8-4.7,1.2c-0.5,0.1-1.1,0.3-1.6,0.4c-1.4,0.4-2.8,0.7-4.2,1.1c-0.7,0.2-1.3,0.4-2,0.5
                                    c-1.4,0.4-2.9,0.8-4.3,1.2C97,43,96.4,43,96,43.4c-1.5,0.2-2.9,0.7-4.3,1.3c-0.5,0.2-1.1,0.4-1.6,0.6c-1.8,0.4-3.4,1.1-5,1.9
                                    c-0.3,0.1-0.6,0.2-0.8,0.3C82.9,48,81.6,48.6,80.4,49.3z" style="fill-opacity: 1; stroke-opacity: 1; transition: fill-opacity 1s ease-in-out, stroke-opacity 1s ease-in-out; stroke-dasharray: 1332.92, 1332.92; stroke-dashoffset: 0;"></path>
                            <path class="st5" fill="#CC5252" stroke="#CC5252" stroke-width="2px" stroke-miterlimit="10" d="M82.3,51.6c-0.2,0.3-0.5,0.5-0.7,0.8c-0.7,2.1,0.1,3.6,1.9,4.7c2,1.3,4.1,2.3,6.3,3.3
                                c0.9,0.2,1.8,0.4,2.7,0.7c1.9,0.4,3.9,0.2,5.8,0.3c2.3-0.8,2.3-0.8,2.3,1.6c0,0.2,0,0.5,0,0.7c0.6,3.3,1.9,6.3,4.2,8.8
                                c1.6,1.8,3.3,3.4,5,5.2c0.7,0.8,1.7,1.5,1.8,2.7c0.5,1.1,1.3,1.8,2.4,2.4c5.9,2.2,11.1,5.4,14.7,10.7c0.9,1.3,2.1,1.9,3.6,1.8
                                c0.3-0.1,0.6-0.1,0.9-0.2c2.5-1,4.9-0.6,7.2,0.7c2.2,1.2,3.8,3,5.2,5.1c0.6,0.9,1.2,1.8,2.3,2.3c0.7,0,1.3,0,2,0
                                c1.3-0.8,2.7-1.3,4.2-1.4c0.7-0.3,1.3-0.2,2-0.1c2.1,0.1,3.9,0.8,5.6,2c4.8,3.4,8,7.9,9.9,13.4c0.6,1.7,1.2,3.5,3.5,3.5
                                c1.3-0.2,2.3-0.9,3-2c0.1-0.5,0.1-1,0.2-1.5c-1.1-3.5-2.6-6.8-4.6-9.8c-0.7-1-0.5-1.4,0.7-1.2c0.5,0,1,0,1.5-0.1
                                c1.8-0.2,3.6-0.4,5.4-0.6c0.7-0.1,1.3-0.3,2-0.4c1.3-0.5,2.5-0.9,3.8-1.4c0.4-0.2,0.8-0.4,1.2-0.7c0.9-0.8,1.8-1.5,2.7-2.3
                                c0.4-0.5,0.8-1,1.2-1.5c1.1-3.4-0.5-5.1-4.2-4.6c-0.5,0.5-1.1,1.1-1.6,1.6c-0.9,1.2-2.1,1.9-3.5,2.3c-0.3,0.4-0.7,0.4-1.2,0.4
                                c-1.8,0.7-3.6,0.8-5.5,0.8c-0.5,0.3-1,0.3-1.6,0.1c-2.2,0.3-4.4-0.2-6.6-0.2c-0.6,0-0.9-0.3-1.2-0.8c-2-3.6-3.9-7.1-4.4-11.3
                                c-0.3-0.6-0.2-1.3-0.1-2c-0.1-3.7-0.8-4.4-4.4-4.3c-0.4,0.3-0.8,0.6-1.1,0.9c-0.7,1.2-0.8,2.5-0.9,3.8c0,0.6,0,1.3,0,1.9
                                c0.6,2,1,4.1,1.7,6c0.6,1.7-0.2,1.5-1.3,1.3c-0.7,0-1.3,0-2,0c-0.9,0.2-2,0.1-2.8,0.5c-1.3,0.5-2.1,0.1-2.9-0.9
                                c-1.4-1.8-3.3-3.2-5.2-4.5c-1.1-0.5-2.3-0.9-3.4-1.4c-1.9-0.4-3.9-0.6-5.9-0.5c-0.8,0.4-1.4,0.4-2-0.4c-1-1.3-2.1-2.5-3.4-3.6
                                c-0.6-0.5-0.7-1-0.1-1.6c0.3-1.5,1-2.8,1.9-3.9c0.3-0.6,0.7-1.2,1.3-1.5c1-1.2,2.3-1.9,3.9-2c0.5-0.4,1-0.3,1.6-0.2
                                c1.3-0.1,2.7,0,3.8-0.8c0.3-0.4,0.5-0.8,0.8-1.1c0.1-3.6-0.4-4.1-4.3-4.4c-0.7,0-1.3,0.1-2,0.1c-1.6,0.4-3.1,0.8-4.7,1.2
                                c-0.4,0.2-0.8,0.5-1.2,0.7c-1,0.8-2,1.7-3.1,2.5c-0.3,0.3-0.6,0.7-0.8,1c-0.7,1-1.3,2.1-2,3.1c-0.2,0.4-0.4,0.8-0.6,1.2
                                c-0.3,0.5-0.1,1.6-1,1.3c-1.8-0.7-4.1-1.4-5.2-2.8c-2-2.6-4.5-4.8-6.7-7.3c-1.5-1.8-3-3.6-3.3-6c-0.5-0.7-0.3-1.5-0.3-2.3
                                c0.1-1.6-0.7-3.4,1-4.7c0.5-0.5,1.1-1,1.6-1.5c0.7-0.9,1.6-1.8,1.6-3.1c-0.4-1.5-1.3-2.5-2.8-3c-1.6,0-2.7,1-3.8,2
                                c-0.2,0.2-0.5,0.4-0.7,0.7c-0.9,1.1-2.1,1.9-3.5,2.4c-0.6,0.4-1.3,0.7-2.1,0.7c-2.1,0.7-4.2,0.5-6.2-0.4c-1.3-0.2-2.4-0.8-3.5-1.5
                                c-0.6-0.3-1.3-0.6-1.8-1.1C85.3,50.6,83.8,50.6,82.3,51.6z" style="fill-opacity: 1; stroke-opacity: 1; transition: fill-opacity 1s ease-in-out, stroke-opacity 1s ease-in-out; stroke-dasharray: 386.219, 386.219; stroke-dashoffset: 0;"></path>
                            <path class="st5" fill="#CC5252" stroke="#CC5252" stroke-width="2px" stroke-miterlimit="10" d="M158.1,137.5c0-0.5,0.1-1,0.1-1.6c-0.4-1.1-1.2-1.8-2-2.5c-3-2.6-5.2-5.7-6-9.7c-0.2-0.7-0.7-1.6,0.2-2.3
                                c0.3-0.1,0.6-0.3,0.9-0.4c1.4-0.8,2.8-1.5,4.1-2.3c0.4-0.3,0.8-0.5,1.1-0.8c1.2-1.4,1.2-2.9,0.3-4.5c-0.1-0.1-0.2-0.2-0.3-0.3
                                c-1.8-1.1-3.4-0.6-5,0.4c-0.4,0.2-0.8,0.5-1.2,0.7c-1.3,0.9-2.7,1.6-4.3,1.8c-0.5,0.3-1,0.5-1.6,0.4c-4.5,0.9-8.7-1.3-10.8-5.7
                                c2-0.8,4.1-0.4,6.1-0.2c0.4-0.2,0.8-0.4,1.2-0.7c0.9-1,1.3-2.2,1-3.6c-0.5-0.8-1.1-1.4-1.8-1.9c-1.9-0.3-3.8-0.4-5.8-0.3
                                c-0.6,0.4-1.3,0.3-2,0.4c-1.4,0.5-2.9,1-4.3,1.5c-0.4,0.2-0.8,0.5-1.2,0.7c-1,0.7-2.1,1.4-3.1,2c-0.2,0.4-0.6,0.7-1,0.8
                                c-0.9,1-1.9,2.1-2.8,3.1c-0.3,0.4-0.6,0.8-0.8,1.1c-0.6,1.2-1.3,2.4-1.9,3.5c-0.2,0.5-0.4,1-0.6,1.5c-0.1,3.1,0.7,3.9,4,4
                                c0.4-0.2,0.8-0.4,1.2-0.6c0.6-1.2,1.2-2.3,1.9-3.5c0.2-0.6,0.4-1.1,0.9-1.5c0.5-1.1,1.4-2,2.3-2.9c0.7-0.7,1.1-0.6,1.6,0.2
                                c1.5,2.5,3.5,4.4,5.8,6.1c1.2,0.5,2.3,1,3.5,1.6c1.5,0.3,3,0.6,4.6,0.5c0.4,0,1,0.1,1.1,0.2c0.4,1.3,1,2.7,0.8,3.9
                                c-0.1,0.8-1.6,0.3-2.5,0.3c-0.6,0-1.3,0.1-1.9,0.1c-1.6,0.3-3.1,0.7-4.7,1c-0.4,0.2-0.8,0.3-1.2,0.5c-1.3,0.8-2.6,1.6-3.9,2.4
                                c-0.3,0.3-0.5,0.5-0.8,0.8c-0.7,1-1.3,2-2,3c0,0.7,0,1.3-0.1,2c0.5,0.9,1.1,1.6,2,2c0.8,0.1,1.6,0.2,2.4,0
                                c1.1-0.5,1.4-1.7,2.3-2.4c0.2-0.4,0.5-0.7,1-0.9c1.4-1.2,3.1-1.8,4.9-1.8c0.6-0.4,1.3-0.4,1.9-0.3c0.9,0,1.8-0.1,2.7,0
                                c2.2,0.1,4.1,0.6,5.6,2.5c1.2,1.6,2.6,3.3,4.9,3.5C156.6,139.6,157.4,138.7,158.1,137.5z" style="fill-opacity: 1; stroke-opacity: 1; transition: fill-opacity 1s ease-in-out, stroke-opacity 1s ease-in-out; stroke-dasharray: 202.098, 202.098; stroke-dashoffset: 0;"></path>
                            <path class="st5" fill="#CC5252" stroke="#CC5252" stroke-width="2px" stroke-miterlimit="10" d="M63.4,71.1c0,0.6-0.1,1.3-0.1,1.9c0.5,1,1.2,1.9,2.3,2.4c0.6-0.1,1.3-0.1,1.9-0.2c1.3-0.8,2.7-1.5,4.3-1.5
                                c0.5-0.4,1-0.3,1.6-0.3c5.9-0.2,9.6,3.4,9.3,9.2c0.1,0.6,0,1.1-0.3,1.6c-0.1,1.6-0.7,3-1.5,4.3c-0.2,0.5-0.3,1-0.5,1.6
                                c0.1,2,1.4,2.9,3.2,3.4c0.5-0.1,1-0.2,1.5-0.4c1-0.8,1.4-2,2.1-3c0.2-0.4,0.4-0.8,0.6-1.2c0.4-1.5,0.8-3.1,1.3-4.6
                                c0.2-0.8-0.5-2.1,1.2-1.8c6.4-0.2,11.9,3.4,13.7,9.2c0.8,2.6,0.8,2.6-1.7,3.5c-0.4,0.3-0.8,0.5-1.2,0.8c-0.9,0.8-1.8,1.6-2.7,2.3
                                c-0.4,0.5-0.8,1-1.3,1.5c-0.6,1.1-1.6,2.1-1.5,3.5c0.5,1.3,1.4,2.2,2.7,2.7c1.5,0.1,2.5-0.6,3.3-1.7c0.2-0.5,0.4-0.9,0.9-1.1
                                c0.9-1.3,2-2.3,3.5-2.8c0.6-0.4,1.3-0.6,2-0.6c2.6-0.5,4.7,1,7,1.6c0.6-0.2,1.3-0.4,1.9-0.6c0.8-0.9,1.3-1.8,1.3-3.1
                                c-0.3-1.9-1.9-2.3-3.2-3.1c-3.1-0.3-5.2-1.6-5.1-5.1c-0.4-1-0.8-2-1.3-3.1c-2-3.4-4.7-6.1-8.1-8.1c-1-0.4-2-0.9-3.1-1.3
                                c-2.3-0.6-4.6-1-7-1.2c-1.7,0.4-2.8,0-3.6-1.8c-1.1-2.6-3.4-4.1-5.7-5.5c-2.4-0.9-4.8-1.5-7.4-1.7c-0.6,0-1.3,0.1-1.9,0.1
                                c-1.6,0.4-3.1,0.7-4.7,1.1c-0.4,0.4-1,0.6-1.6,0.7C64.8,69.6,63.9,70.2,63.4,71.1z" style="fill-opacity: 1; stroke-opacity: 1; transition: fill-opacity 1s ease-in-out, stroke-opacity 1s ease-in-out; stroke-dasharray: 187.968, 187.968; stroke-dashoffset: 0;"></path>
                            <path class="st5" fill="#CC5252" stroke="#CC5252" stroke-width="2px" stroke-miterlimit="10" d="M67.3,91.5c-0.1,0.6-0.4,1.1-0.8,1.5c-0.4,1.1-0.8,2.2-1.2,3.4c-0.3,0.8,0.5,2.2-1.2,2.3
                                c-1.2,0.4-2.3,0.8-3.5,1.2c-0.8,0.8-1.3,0.5-1.8-0.3c-1.7-2.4-4-4.2-6.7-5.3c-2.2-0.8-4.4-0.8-6.6-0.8c-1.9,0.7-2.5,2.1-2.3,4
                                c0.5,0.9,1.2,1.8,2.2,2.1c4-0.2,7.2,1.1,9.2,4.8c0.2,0.5,0.5,0.9,0.5,1.4c0.2,3.5,1.9,4.5,5.1,3.2c0.3-0.4,0.5-0.7,0.8-1.1
                                c0.7-1.5,1.9-2.4,3.5-2.8c1.2-0.9,2.2-0.9,3,0.7c0.9,1.6,2.4,2.6,3.6,3.9c0.6,0.4,1.3,0.8,1.9,1.3c1.4,1.1,2.9,1.2,4.4,0.1
                                c0.2-0.3,0.5-0.5,0.7-0.8c0.8-2.1-0.1-3.5-1.9-4.7c-2.7-1.8-5.3-3.9-4.7-7.7c0-0.7,0.2-1.4,0.7-2c0.3-1.2,1-2.2,1.9-3.1
                                c0.4-0.5,0.8-1,1.2-1.5c0.9-1.4,1.1-2.8-0.1-4.1c-1.2-1.3-2.6-1.4-4.2-0.6c-0.5,0.5-1,1.1-1.5,1.6C68.8,89.3,68.1,90.4,67.3,91.5z
                                " style="fill-opacity: 1; stroke-opacity: 1; transition: fill-opacity 1s ease-in-out, stroke-opacity 1s ease-in-out; stroke-dasharray: 119.486, 119.486; stroke-dashoffset: 0;"></path>
                            <path class="st5" fill="#CC5252" stroke="#CC5252" stroke-width="2px" stroke-miterlimit="10" d="M100.6,118.2c0.3-0.1,0.6-0.2,1-0.2c1.1-0.9,1.9-2.2,3.3-2.6c0.5-0.3,1-0.6,1.5-0.8c1.1-1.3,1.5-2.7,0.6-4.2
                                c-0.3-0.3-0.7-0.7-1-1c-1.7-0.9-3.1,0.1-4.6,0.6c-0.4,0.3-0.8,0.5-1.2,0.8c-1,1-2,2-3,3c-0.1,0.3-0.2,0.6-0.3,0.9
                                C97.3,117.2,98,117.9,100.6,118.2z" style="fill-opacity: 1; stroke-opacity: 1; transition: fill-opacity 1s ease-in-out, stroke-opacity 1s ease-in-out; stroke-dasharray: 30.1233, 30.1233; stroke-dashoffset: 0;"></path>
                            <path class="st5" fill="#CC5252" stroke="#CC5252" stroke-width="2px" stroke-miterlimit="10" d="M120.3,42.8c-0.1,0.5-0.2,1-0.3,1.5c0.3,1.1,1.1,1.8,1.8,2.7c1.8,2.4,3.5,4.9,3.1,8.2c-0.1,0.5-0.2,1-0.3,1.5
                                c-0.5,3.3,0.9,4.6,4.4,4.2c0.4-0.4,1-0.7,1.6-0.7c1.8-0.6,3.6-0.6,5.4,0c1.4,0.3,2.7,0.8,3.9,1.7c3.5,1.7,6.6,3.9,7.9,7.9
                                c0.6,1.3,1.1,2.6,2.7,3.1c1.4,0.1,2.5-0.5,3.5-1.5c0.2-0.5,0.3-1,0.5-1.5c-0.3-1-0.6-2.1-1-3.1c-0.6-1.2,0-1.6,1-1.9
                                c0.5-0.1,1-0.2,1.5-0.3c0.7-0.2,1.3-0.2,2-0.1c4.2,0.5,7.6,2.4,10,5.9c1.2,1.7,1.9,3.5,1.3,5.7c0,0.4,0,0.9-0.4,1.2
                                c-0.8,4.1,0.9,5.8,4.6,4.6c0.2-0.3,0.5-0.5,0.7-0.8c0.4-1.3,0.9-2.5,1.3-3.8c0.1-0.5,0.2-1,0.3-1.6c0-2.6-0.7-5-1.7-7.4
                                c-1.9-2.9-4.3-5.3-7.2-7.3c-2.7-1.4-5.5-2.4-8.6-2.9c-0.7,0-1.3,0-2,0c-2.3,0.3-4.5,0.6-6.4,1.9c-0.4,0.3-0.7,0.4-1.2,0.1
                                c-2.7-1.5-2.9-2.2-1.1-4.8c0.8-1.2,1.8-2.2,3.1-2.8c0.6-0.6,1.3-0.9,2.1-1.1c1.1-0.6,2.3-0.9,3.1-2c0.1-0.4,0.2-0.8,0.4-1.2
                                c0-2-1.1-3.1-3.4-3.6c-0.5,0.1-1,0.3-1.6,0.4c-1.1,0.5-2.3,1.1-3.4,1.6c-0.5,0.4-1.1,0.7-1.6,1.1c-0.9,0.8-1.8,1.6-2.7,2.4
                                c-0.2,0.3-0.5,0.5-0.7,0.8c-0.4,0.7-1,1.4-1.2,2.2c-0.5,1.7-1.4,1.9-2.7,0.9c-0.9-0.2-1.8-0.4-2.7-0.6c-1.2,0-2.4-0.1-3.6-0.1
                                c-0.8,0-1.3-0.1-1.3-1c-0.1-2-1-3.8-1.7-5.7c-1.1-1.6-2.2-3.1-3.3-4.7c-0.8-1.1-1.9-1.7-3.3-1.6C121.7,41.1,120.9,41.8,120.3,42.8
                                z" style="fill-opacity: 1; stroke-opacity: 1; transition: fill-opacity 1s ease-in-out, stroke-opacity 1s ease-in-out; stroke-dasharray: 206.324, 206.324; stroke-dashoffset: 0;"></path>
                            <path class="st5" fill="#CC5252" stroke="#CC5252" stroke-width="2px" stroke-miterlimit="10" d="M190.4,74.8c-0.8,0-1.6,0.1-2.3,0.1c-1.4,0.4-2.8,0.7-4.2,1.1c-0.4,0.2-0.8,0.4-1.2,0.6
                                c-0.9,0.8-1.8,1.6-2.6,2.3c-0.2,0.5-0.3,1-0.5,1.5c0.4,1.7,1.3,2.9,3.1,3.3c0.5-0.1,1-0.2,1.5-0.3c1.2-1,2.3-2,3.9-2.1
                                c0.5,0,1-0.1,1.6-0.1c3.3,0,5.9,1.1,7.6,4c0.9,1.6,2.3,2,4,1.5c0.4-0.3,0.8-0.6,1.2-0.9c1-1.6,0.5-3.1-0.2-4.6
                                c-1.1-1.4-2.3-2.6-3.7-3.8C196,76,193.4,75,190.4,74.8" style="fill-opacity: 1; stroke-opacity: 1; transition: fill-opacity 1s ease-in-out, stroke-opacity 1s ease-in-out; stroke-dasharray: 59.5537, 59.5537; stroke-dashoffset: 0;"></path>
                            <path class="st5" fill="#CC5252" stroke="#CC5252" stroke-width="2px" stroke-miterlimit="10" d="M65.3,128.6c-0.7,0.1-1.3,0.2-2,0.3c-1.3,0.4-2.6,0.9-3.9,1.3c-0.4,0.3-0.8,0.5-1.2,0.8
                                c-0.7,0.9-1.8,1.5-2.1,2.7c0,0.9,0.2,1.8,0.7,2.7c0.1,0.1,0.2,0.2,0.3,0.3c0.8,0.3,1.5,0.6,2.3,0.9c1.7,0,2.3-1.9,3.8-2.1
                                c0.5-0.2,1-0.5,1.6-0.4c2.5-0.3,4.7,0.7,6.7,2c2.1,1.4,2.1,1.4,0.7,3.5c-0.4,0.5-0.7,1.1-1.1,1.6c-0.1,0.3-0.2,0.6-0.4,0.9
                                c-0.4,1.8-0.6,3.6-0.2,5.4c0.6,1.2,1.3,2.4,2.7,2.8c1.5,0.1,2.6-0.5,3.5-1.7c0.1-0.4,0.3-0.8,0.4-1.2c-0.2-1.8-1.4-3.6,0.7-5.1
                                c0.4-0.6,0.9-1,1.6-1.3c3.1-1.9,4.8-1.6,7.5,1.2c0.8,0.2,1.5,0.3,2.3,0.5c1-0.4,1.8-1,2.4-1.9c0.1-0.6,0.1-1.3,0.2-1.9
                                c-0.8-2-2.4-3.2-4.1-4.3c-0.9-0.3-1.8-0.5-2.7-0.8c-1.8,0-3.6-0.1-5.4,0.3c-0.6,0.4-1.1,0-1.5-0.4c-1.5-1.8-3.5-3.1-5.6-4.3
                                C70.3,129.3,67.8,128.8,65.3,128.6z" style="fill-opacity: 1; stroke-opacity: 1; transition: fill-opacity 1s ease-in-out, stroke-opacity 1s ease-in-out; stroke-dasharray: 106.456, 106.456; stroke-dashoffset: 0;"></path>
                            <path class="st5" fill="#CC5252" stroke="#CC5252" stroke-width="2px" stroke-miterlimit="10" d="M202.4,111.3c0.2-0.2,0.5-0.4,0.7-0.7c0.9-1.2,1.8-2.5,2.7-3.7c0.2-0.3,0.3-0.6,0.5-0.9
                                c0.3-1.6,0.7-3.1,1-4.7c0-0.7,0-1.3,0-2c-0.3-1.3-0.6-2.6-1.3-3.8c-0.9-1.7-2.2-2.7-4.2-2.3c-0.5,0.4-1.1,0.8-1.6,1.2
                                c-1.3,2,0.3,3.6,0.7,5.4c0.2,0.7,0.2,1.3,0,2c-0.1,1.6-0.7,2.8-1.8,3.9c-0.4,0.6-0.9,1.1-1.7,1.4c-2.1,1.3-4.2,1-6.2-0.2
                                c-0.6,0-1.2,0-1.8,0.1c-1.1,0.6-1.8,1.4-2.1,2.6c0,0.6,0.1,1.3,0.1,1.9c0.5,0.5,1,1,1.5,1.5c0.9,0.3,1.8,0.6,2.7,0.9
                                c1.9,0.4,3.8,0.5,5.8,0.1c0.3-0.1,0.7-0.2,1-0.2C199.7,112.9,201.1,112.1,202.4,111.3z" style="fill-opacity: 1; stroke-opacity: 1; transition: fill-opacity 1s ease-in-out, stroke-opacity 1s ease-in-out; stroke-dasharray: 69.2985, 69.2985; stroke-dashoffset: 0;"></path>
                            <path class="st6" fill="#B73A34" stroke="#B73A34" stroke-miterlimit="10" d="M147.3,7c5.8,0.8,11.6,1.6,17.4,2.6c19.9,3.5,37.8,11.3,53.2,24.7c8.9,7.8,16.7,16.5,22.8,26.7
                                    c7.1,11.9,11.2,24.7,11.9,38.5c0.4,6.4,0,12.8,0,19.2c0,5.1-2.5,9.5-4.6,13.9c-2.6,5.5-2.7,10.7,0.2,16.1
                                    c4.9,9.2,9.5,18.4,14,27.7c1.8,3.6,2.7,7.6,1.4,11.6c-1.9,6-6.2,9.4-12.2,10.7c-2.4,0.5-3.1,1.4-2.8,3.8c0.3,2.4,0.1,4.8,0.3,7.3
                                    c0.3,4-1.2,7.2-4.1,10c-0.6,0.6-1.1,1.6-1,2.4c0.5,5.1-1.5,9.4-4.3,13.3c-1.9,2.7-2.8,5.3-2.1,8.7c0.6,3.3,0.7,6.7,0.6,10.1
                                    c-0.2,8.3-4.4,13.6-12.6,16.5c-7.6,2.7-15.5,2.5-23.4,2c-6.8-0.5-13.6-1.6-20.4-1.7c-6.7-0.1-12,2.9-14.7,9.5
                                    c-0.6,1.4-1.4,2.8-2.1,4.2c-5.7,12-11.3,24.1-16.9,36.1c-0.6,1.3-1.2,2.7-1.5,4.2c-0.6,3.1-2,5.6-4.8,7.2c-1.2,0-2.4,0-3.6,0
                                    c-5.9-3.7-5.1-6.9-2.6-13c4.5-11,9.7-21.8,14.7-32.6c2-4.3,4.4-8.4,6.4-12.7c4.4-9.4,12.4-13.9,22.1-14.9c5.9-0.6,12,0.6,18,0.8
                                    c6.7,0.2,13.6,1.1,20.1,0.1c9.6-1.5,9.1-2.5,8.7-10.7c-0.1-1.7-0.4-3.4-0.7-5.1c-0.7-4.4,0-8.6,2.4-12.5c0.9-1.4,1.7-2.9,2.7-4.1
                                    c1.6-2,1.7-3.8,0.6-6.2c-1.7-3.6,0-8,3.7-9.5c2-0.8,2.5-2,2.3-4c-0.2-2.8-0.2-5.5-0.3-8.3c-0.3-7.7,3-11.6,10.6-12.6
                                    c0.7-0.1,1.4-0.1,2.1-0.2c2.6-0.5,3.6-2.1,2.5-4.5c-2-4.4-4.1-8.8-6.3-13.1c-2.9-5.8-6.2-11.4-9-17.2c-3.4-7.2-4-14.9-0.3-21.8
                                    c5.6-10.4,5.3-21.3,4.2-32.3c-1.8-17.7-9.6-32.7-21.7-45.8c-12.1-13.1-26.6-22.1-43.6-27.3c-19-5.8-38.3-6-57.8-3.8
                                    C106.1,22,95.6,24,85.4,27.6c-13.9,4.9-25.6,13-35.8,23.6c-7.2,7.4-13.6,15.4-18.8,24.3c-9.7,16.5-15.1,34-12.2,53.3
                                    c1.3,8.6,4.7,16.5,9.1,23.8c7.5,12.4,15.7,24.4,23.2,36.8c10.8,17.9,15.6,37,9.6,57.8c-0.9,3.3-3.1,5.2-5.9,5.4
                                    c-2.7,0.2-5.4-1.1-6-3.6c-0.5-1.8-0.4-4,0.1-5.8c3.4-11.5,2.1-22.7-1.8-33.8c-3.2-9.1-8.5-16.9-14.1-24.7
                                    c-8.6-12-16.1-24.5-22-38.1c-5.5-12.7-6.6-25.9-4.7-39.4C8.9,88.8,16.6,72.4,28,57.8c4.9-6.4,10.2-12.7,16-18.4
                                    c12.3-12.2,27-20.6,43.6-25.5c12.2-3.6,24.6-5.4,37.3-6.3c0.9-0.1,1.8-0.3,2.8-0.5C134.1,7,140.7,7,147.3,7z" style="fill-opacity: 1; stroke-opacity: 1; transition: fill-opacity 1s ease-in-out, stroke-opacity 1s ease-in-out; stroke-dasharray: 1603.56, 1603.56; stroke-dashoffset: 0;"></path>
                        </svg>