<svg id="svg__responsive" xmlns="http://www.w3.org/2000/svg" viewBox="0 0 485.1 387.1">
                            <path class="st0" fill="#888888" stroke="#888888" stroke-miterlimit="10" d="M253.1,274.3c2.9,11.3,5.7,22.3,8.4,33.4c0.6,2.2,1.6,3.4,4.1,3.2c2.4-0.2,4.8-0.1,7.2,0
                            c2.9,0,4.4,1.7,4.6,4.5c0.4,7.1-1.1,7.7-7.8,7.7c-38.8-0.1-77.5-0.1-116.3,0c-5.6,0-7.5-1.4-7-7.2c0.1-0.8-0.1-1.5,0.3-2.3
                            c0.9-1.7,2.1-2.8,4.2-2.8c2.7,0,5.3,0,8,0c1.4,0,2.2-0.4,2.6-2c2.6-10.8,5.2-21.6,8-32.3c0.6-2.1-0.1-2.2-1.8-2.2
                            c-25,0-50.1,0-75.1,0c-20,0-40.1,0-60.1,0c-5.5,0-9.5-3.9-9.5-9.5c0-77.3,0-154.6,0-231.8c0-4,3.9-9.1,9.1-9.1
                            c121,0.1,242,0.1,363.1,0c4.4,0,8.8,4.3,8.8,8.8c-0.1,37-0.1,74.1-0.1,111.1c0,2.3,0.7,2.8,2.8,2.8c4.7-0.2,9.4,0.2,14-0.1
                            c7.3-0.4,13.7,6.3,13.7,13.7c-0.2,26.4-0.1,52.7-0.1,79.1c0,2.3,0.7,2.8,2.9,2.8c6.7-0.1,13.4-0.1,20.1-0.1c6.1,0,12.2,5.9,12.2,12
                            c0,37.7,0,75.3,0,113c0,5-4.7,10.3-10,11.6c-1.4,0.3-2.9,0.5-4.4,0.5c-16.1,0-32.1,0-48.2,0c-7.8,0-13.9-6-13.7-13.7
                            c0.2-7.6-0.1-15.3,0.1-22.9c0.1-2.4-0.7-2.7-2.9-2.7c-27.5,0.1-55.1,0-82.6,0.1c-7.4,0-13.3-5.8-13.3-13.4
                            c-0.1-16.5-0.1-33.1,0-49.6c0-2-0.3-2.6-2.5-2.6c-12.1,0.1-24.2,0.1-36.3,0.1C254.9,274.3,254.1,274.3,253.1,274.3z" style="fill-opacity: 1; stroke-opacity: 1; transition: fill-opacity 1s ease-in-out, stroke-opacity 1s ease-in-out; stroke-dasharray: 1728.03, 1728.03; stroke-dashoffset: 0;"></path>
                            <path class="st1" fill="#FEFEFE" stroke="#FEFEFE" stroke-miterlimit="10" d="M294.8,156.9c-0.9,4.2-0.2,8.4-0.4,12.6c-0.9,0.8-2,0.7-3.1,0.7c-3.3,0-6.5,0-9.8,0.2c3.2,0.3,6.4,0.2,9.6,0.3
                            c1.2,0,2.4-0.2,3.3,0.7c0,2.2,0,4.3,0,6.5c-0.9,0.8-2,0.7-3.1,0.7c-3.3,0-6.5,0-9.8,0.2c3.2,0.3,6.4,0.2,9.6,0.3
                            c1.2,0,2.4-0.2,3.3,0.7c0,2,0,4,0,6c-1,0.9-2.2,0.7-3.3,0.7c-3.1,0.1-6.1-0.1-9.2,0.2c3.1,0.3,6.1,0.2,9.2,0.2
                            c1.1,0,2.3-0.2,3.3,0.7c0,9.5,0,19,0.1,28.5c0,2.1-0.7,2.4-2.5,2.4c-32.7-0.1-65.5,0-98.2,0c-50.4,0-100.7,0-151.1,0.1
                            c-2.3,0-2.8-0.6-2.8-2.8c0.1-57.1,0.1-114.2,0-171.2c0-2.4,0.6-2.9,2.9-2.9c113.7,0.1,227.4,0.1,341,0c2.2,0,2.9,0.4,2.8,2.8
                            c-0.1,33.1-0.1,66.3,0,99.4c0,2-0.3,2.8-2.6,2.8c-8.8-0.2-17.6-0.1-26.4-0.1c-0.9-1-0.8-2.3-0.8-3.6c0-8.3,0-16.5,0-24.8
                            c0-3.5-0.1-3.6-3.5-3.6c-22.7,0-45.4,0-68.1,0c-3.6,0-3.7,0.1-3.7,3.7c0,11.4,0,22.8,0,34.2c0,3.7,0,3.7,3.8,3.7c2.2,0,4.4,0,6.5,0
                            C292.9,156.1,293.9,156.1,294.8,156.9z" style="fill-opacity: 1; stroke-opacity: 1; transition: fill-opacity 1s ease-in-out, stroke-opacity 1s ease-in-out; stroke-dasharray: 1202.05, 1202.05; stroke-dashoffset: 0;"></path>
                            <path class="st1" fill="#FEFEFE" stroke="#FEFEFE" stroke-miterlimit="10" d="M393,298.7c0,5.4,0,10.8,0.1,16.1c0,1.6-0.3,2.1-2,2.1c-29.1-0.1-58.2-0.1-87.2,0c-1.7,0-2-0.5-2-2.1
                            c0-47.4,0-94.8,0-142.2c0-1.7,0.4-2.2,2.2-2.2c40.2,0.1,80.5,0,120.7,0c1.6,0,2.1,0.3,2.1,2c-0.1,22.5,0,45.1,0,67.6
                            c0,1.4-0.3,2.1-1.9,2c-2.8-0.1-5.6-0.1-8.4-0.1c-0.8-0.8-0.7-1.9-0.7-2.9c0-2,0-4.1,0-6.1c0-2.7-0.2-2.9-3-2.9c-3.3,0-6.7,0-10,0
                            c-8.3,0-16.7,0-25,0c-2.9,0-3,0.1-3,3c0,11.1,0,22.1,0,33.2c0,2.7,0.2,2.9,2.9,3c4.1,0,8.1,0,12.2,0c1.2,0,2.4-0.1,3.3,0.7
                            c0,3.4,0,6.8,0,10.3c-1,0.9-2.2,0.7-3.3,0.7c-4.3,0-8.5,0-12.8,0.2c4.2,0.2,8.4,0.2,12.6,0.2c1.2,0,2.5-0.2,3.6,0.7
                            c0,2.2,0,4.3,0,6.5c-1,0.9-2.2,0.7-3.3,0.7c-4.3,0-8.5,0-12.8,0.2c4.2,0.2,8.4,0.2,12.6,0.2c1.2,0,2.5-0.2,3.6,0.7c0,2,0,4,0,6
                            c-1,0.9-2.2,0.7-3.3,0.7c-4.1,0-8.2,0-12.3,0.2c4,0.3,8.1,0.2,12.1,0.2C390.7,298,392,297.7,393,298.7z" style="fill-opacity: 1; stroke-opacity: 1; transition: fill-opacity 1s ease-in-out, stroke-opacity 1s ease-in-out; stroke-dasharray: 687.628, 687.628; stroke-dashoffset: 0;"></path>
                            <path class="st1" fill="#FEFEFE" stroke="#FEFEFE" stroke-miterlimit="10" d="M161,228.9c43.5,0,87,0,130.5-0.1c2.2,0,2.9,0.4,2.8,2.8c-0.1,11.8,0,23.5-0.1,35.3c0,3.6,0.5,3.1-3,3.1
                            c-78.2,0-156.4,0-234.6,0c-7.9,0-15.8,0-23.6,0c-3.8,0-5.8-2.1-5.8-5.9c0-5.2-0.3-10.5,0.1-15.7c0.5-6.1,0.3-12.1,0.4-18.2
                            c0-1.1,0.3-1.6,1.5-1.5c0.6,0.1,1.2,0,1.9,0C74.3,228.9,117.7,228.9,161,228.9z" style="fill-opacity: 1; stroke-opacity: 1; transition: fill-opacity 1s ease-in-out, stroke-opacity 1s ease-in-out; stroke-dasharray: 612.322, 612.322; stroke-dashoffset: 0;"></path>
                            <path class="st2" fill="#444444" stroke="#444444" stroke-miterlimit="10" d="M213.6,28.7c60,0,119.9,0,179.9,0c4.4,0,5.7,1.3,5.7,5.7c0,36.5,0,73,0,109.5c0,2-0.4,3-2.7,2.8
                            c-2.5-0.2-5-0.1-7.5,0c-1.2,0-1.7-0.4-1.6-1.6c0.1-0.6,0-1.2,0-1.9c0-33.1,0-66.1,0-99.2c0-3.1,0-3.1-2.9-3.1
                            c-114.2,0-228.5,0-342.7,0c-2.3,0-3,0.4-3,2.9c0.1,57.7,0.1,115.4,0,173.1c0,2.2,0.5,2.8,2.8,2.8c83.2-0.1,166.4-0.1,249.6-0.1
                            c3.1,0,3.1,0,3.1,3.1c0,4.8,0,4.8-4.7,4.8c-86.2,0-172.5,0-258.7,0c-3.7,0-3.2,0.4-3.2-3.2c0-63.2,0-126.3,0-189.5
                            c0-4.6,1.5-6.1,6.1-6.1C93.7,28.7,153.6,28.7,213.6,28.7z" style="fill-opacity: 1; stroke-opacity: 1; transition: fill-opacity 1s ease-in-out, stroke-opacity 1s ease-in-out; stroke-dasharray: 1853.87, 1853.87; stroke-dashoffset: 0;"></path>
                            <path class="st2" fill="#444444" stroke="#444444" stroke-miterlimit="10" d="M299,243c0-27.1,0.1-54.3-0.1-81.4c0-6.2,4.3-10.5,10.3-10.5c37,0.2,73.9,0.2,110.9,0c4.7,0,9.5,4.8,9.5,9.4
                            c-0.2,26.2-0.1,52.4-0.1,78.6c0,0.4,0,0.8,0,1.2c-0.1,0.7,0.3,1.7-1,1.7c-1.2-0.1-0.9-1.1-0.9-1.8c0-10.7,0-21.4,0-32
                            c0-12,0-24,0-36c0-2-0.4-2.7-2.5-2.6c-40.6,0.1-81.2,0.1-121.9,0c-1.9,0-2.5,0.5-2.5,2.4c0.1,47.8,0.1,95.6,0,143.4
                            c0,2.1,0.6,2.6,2.6,2.6c28.9-0.1,57.9,0,86.8-0.1c2.2,0,3,0.4,2.9,2.8c-0.2,4.2-0.1,8.4,0,12.6c0,1.5-0.5,2-2,2
                            c-27.8,0-55.5,0-83.3,0c-5,0-8.8-4.2-8.8-9.7c0-22.6,0-45.2,0-67.8C299,252.7,299,247.9,299,243z" style="fill-opacity: 1; stroke-opacity: 1; transition: fill-opacity 1s ease-in-out, stroke-opacity 1s ease-in-out; stroke-dasharray: 942.141, 942.141; stroke-dashoffset: 0;"></path>
                            <path class="st1" fill="#FEFEFE" stroke="#FEFEFE" stroke-miterlimit="10" d="M211.6,274.3c11.4,0,22.7,0,34.1,0c1.7,0,2.5,0.4,3,2.2c2.7,10.4,5.2,20.8,7.9,31.1c0.5,1.8-0.1,1.7-1.4,1.8
                            c-29,0.6-58.1,0.4-87.1,0.5c-1.5,0-1.9-0.2-1.5-1.9c2.8-10.7,5.4-21.5,8-32.3c0.3-1.4,1.3-1.5,2.4-1.5
                            C188.6,274.3,200.1,274.3,211.6,274.3z" style="fill-opacity: 1; stroke-opacity: 1; transition: fill-opacity 1s ease-in-out, stroke-opacity 1s ease-in-out; stroke-dasharray: 234.656, 234.656; stroke-dashoffset: 0;"></path>
                            <path class="st3" fill="#CD4C42" stroke="#CD4C42" stroke-miterlimit="10" d="M294.8,156.9c-4.1,0-8.1-0.1-12.2,0c-1.4,0-1.9-0.3-1.9-1.8c0.1-13.2,0.1-26.3,0-39.5c0-1.5,0.4-1.8,1.8-1.8
                            c24.4,0,48.8,0.1,73.2,0c1.8,0,1.8,0.9,1.8,2.1c0,10.2,0,20.4,0,30.6c-16.2,0-32.5,0.2-48.7-0.1C302.4,146.4,296,150.6,294.8,156.9
                            z" style="fill-opacity: 1; stroke-opacity: 1; transition: fill-opacity 1s ease-in-out, stroke-opacity 1s ease-in-out; stroke-dasharray: 232.579, 232.579; stroke-dashoffset: 0;"></path>
                            <path class="st4" fill="#454545" stroke="#454545" stroke-width="3px" stroke-miterlimit="10" d="M464.7,310.6c0,18.2-0.1,36.3,0.1,54.5c0,4.7-4,9.3-9.1,9.3c-16.3,0.1-32.6,0.1-48.9,0c-5.2,0-9-4.1-9-9.3
                            c0-36.5,0-73,0-109.5c0-5.3,3.6-8.9,8.9-8.9c16.4,0,32.7,0,49.1,0c5.2,0,8.9,3.7,8.9,8.9C464.7,274,464.7,292.3,464.7,310.6z" style="fill-opacity: 1; stroke-opacity: 1; transition: fill-opacity 1s ease-in-out, stroke-opacity 1s ease-in-out; stroke-dasharray: 374.08, 374.08; stroke-dashoffset: 0;"></path>
                            <path class="st3" fill="#CD4C42" stroke="#CD4C42" stroke-miterlimit="10" d="M393,270.1c-5.8,0-11.5,0-17.3,0c-1.4,0-1.9-0.3-1.9-1.8c0.1-12.4,0.1-24.8,0-37.2c0-1.4,0.4-1.8,1.8-1.8
                            c13,0.1,26,0.1,39,0c1.5,0,1.8,0.5,1.8,1.9c-0.1,3.6,0,7.2,0,10.8c-3.7,0-7.3,0.2-10.9,0c-5.8-0.3-12.6,6-12.5,12.5
                            C393.1,259.7,393,264.9,393,270.1z" style="fill-opacity: 1; stroke-opacity: 1; transition: fill-opacity 1s ease-in-out, stroke-opacity 1s ease-in-out; stroke-dasharray: 159.49, 159.49; stroke-dashoffset: 0;"></path>
                            <path class="st1" fill="#FEFEFE" stroke="#FEFEFE" stroke-width="3px" stroke-miterlimit="10" d="M212,318.3c-19.3,0-38.7,0-58,0c-0.6,0-1.2,0-1.9,0c-1.1,0-1-0.7-1-1.4c0-0.8,0-1.4,1.1-1.4c0.5,0,0.9,0,1.4,0
                            c38.9,0,77.8,0,116.7,0c0.8,0,1.8-0.4,2.4,0.4c0.3,0.4,0.2,1.2,0.1,1.8c-0.2,0.9-1,0.5-1.6,0.5c-6.5,0-12.9,0-19.4,0
                            C238.5,318.3,225.3,318.3,212,318.3z" style="fill-opacity: 1; stroke-opacity: 1; transition: fill-opacity 1s ease-in-out, stroke-opacity 1s ease-in-out; stroke-dasharray: 247.689, 247.689; stroke-dashoffset: 0;"></path>
                            <path class="st5" fill="#9F413C" stroke="#9F413C" stroke-width="0px" stroke-miterlimit="10" d="M393,282.3c-5.4,0-10.9,0-16.3,0c-0.7,0-1.9,0.6-1.9-0.9c0-1.5,1.2-0.9,1.9-0.9c5.4-0.1,10.9,0,16.3,0
                            C393,281,393,281.6,393,282.3z" style="fill-opacity: 1; stroke-opacity: 1; transition: fill-opacity 1s ease-in-out, stroke-opacity 1s ease-in-out; stroke-dasharray: 39.5878, 39.5878; stroke-dashoffset: 0;"></path>
                            <path class="st5" fill="#9F413C" stroke="#9F413C" stroke-width="0px" stroke-miterlimit="10" d="M393,290.7c-5.4,0-10.9,0-16.3,0c-0.7,0-1.9,0.6-1.9-0.9c0-1.5,1.2-0.9,1.9-0.9c5.4-0.1,10.9,0,16.3,0
                            C393,289.4,393,290.1,393,290.7z" style="fill-opacity: 1; stroke-opacity: 1; transition: fill-opacity 1s ease-in-out, stroke-opacity 1s ease-in-out; stroke-dasharray: 39.5878, 39.5878; stroke-dashoffset: 0;"></path>
                            <path class="st5" fill="#9F413C" stroke="#9F413C" stroke-width="0px" stroke-miterlimit="10" d="M393,298.7c-5.4,0-10.7,0-16.1,0c-0.7,0-1.7,0.4-1.7-0.9c0-1.4,1-0.9,1.7-0.9c5.4,0,10.7,0,16.1,0
                            C393,297.4,393,298,393,298.7z" style="fill-opacity: 1; stroke-opacity: 1; transition: fill-opacity 1s ease-in-out, stroke-opacity 1s ease-in-out; stroke-dasharray: 38.7173, 38.7173; stroke-dashoffset: 0;"></path>
                            <path class="st5" fill="#9F413C" stroke="#9F413C" stroke-width="0px" stroke-miterlimit="10" d="M294.3,171.4c-4.4,0-8.9,0-13.3,0c-0.7,0-1.7,0.4-1.7-0.9c0-1.4,1-0.9,1.7-0.9c4.4,0,8.9,0,13.3,0
                            C294.3,170.1,294.3,170.8,294.3,171.4z" style="fill-opacity: 1; stroke-opacity: 1; transition: fill-opacity 1s ease-in-out, stroke-opacity 1s ease-in-out; stroke-dasharray: 33.1172, 33.1172; stroke-dashoffset: 0;"></path>
                            <path class="st5" fill="#9F413C" stroke="#9F413C" stroke-width="0px" stroke-miterlimit="10" d="M294.3,179.8c-4.4,0-8.9,0-13.3,0c-0.7,0-1.7,0.4-1.7-0.9c0-1.4,1-0.9,1.7-0.9c4.4,0,8.9,0,13.3,0
                            C294.3,178.5,294.3,179.2,294.3,179.8z" style="fill-opacity: 1; stroke-opacity: 1; transition: fill-opacity 1s ease-in-out, stroke-opacity 1s ease-in-out; stroke-dasharray: 33.1172, 33.1172; stroke-dashoffset: 0;"></path>
                            <path class="st5" fill="#9F413C" stroke="#9F413C" stroke-width="0px" stroke-miterlimit="10" d="M294.3,187.8c-4.3,0-8.5,0-12.8,0c-0.7,0-1.7,0.4-1.7-0.9c0-1.4,1-0.9,1.7-0.9c4.3,0,8.5,0,12.8,0
                            C294.3,186.5,294.3,187.1,294.3,187.8z" style="fill-opacity: 1; stroke-opacity: 1; transition: fill-opacity 1s ease-in-out, stroke-opacity 1s ease-in-out; stroke-dasharray: 32.1172, 32.1172; stroke-dashoffset: 0;"></path>
                            <path class="st3" fill="#CD4C42" stroke="#CD4C42" stroke-miterlimit="10" d="M208.5,156.9c-11.9,0-23.9-0.1-35.8,0.1c-2,0-2.4-0.5-2.4-2.5c0.1-12.9,0.1-25.7,0-38.6c0-1.6,0.4-2.1,2-2.1
                            c24.2,0.1,48.5,0.1,72.7,0c1.7,0,2,0.5,2,2.1c-0.1,12.9-0.1,25.9,0,38.8c0,1.7-0.4,2.2-2.2,2.2
                            C232.8,156.8,220.6,156.9,208.5,156.9z" style="fill-opacity: 1; stroke-opacity: 1; transition: fill-opacity 1s ease-in-out, stroke-opacity 1s ease-in-out; stroke-dasharray: 236.995, 236.995; stroke-dashoffset: 0;"></path>
                            <path class="st3" fill="#CD4C42" stroke="#CD4C42" stroke-miterlimit="10" d="M101.8,113.8c11.9,0,23.9,0,35.8,0c1.7,0,2.4,0.2,2.4,2.2c-0.1,12.8-0.1,25.6,0,38.4c0,1.6-0.4,2.1-2.1,2.1
                            c-24.1-0.1-48.2,0-72.3,0c-1.4,0-2-0.2-2-1.9c0.1-12.9,0.1-25.9,0-38.8c0-1.8,0.7-1.9,2.2-1.9C77.8,113.8,89.8,113.8,101.8,113.8z" style="fill-opacity: 1; stroke-opacity: 1; transition: fill-opacity 1s ease-in-out, stroke-opacity 1s ease-in-out; stroke-dasharray: 235.523, 235.523; stroke-dashoffset: 0;"></path>
                            <path class="st3" fill="#CD4C42" stroke="#CD4C42" stroke-miterlimit="10" d="M79.2,94.2c-4.5,0-9,0-13.6,0c-1.4,0-2-0.2-2-1.8c0.1-9.3,0.1-18.6,0-27.8c0-1.3,0.3-1.7,1.7-1.7
                            c9.4,0.1,18.7,0.1,28.1,0c1.4,0,1.7,0.5,1.7,1.7c0,9.3-0.1,18.6,0,27.8c0,1.7-0.7,1.9-2,1.8C88.4,94.1,83.8,94.2,79.2,94.2z" style="fill-opacity: 1; stroke-opacity: 1; transition: fill-opacity 1s ease-in-out, stroke-opacity 1s ease-in-out; stroke-dasharray: 123.375, 123.375; stroke-dashoffset: 0;"></path>
                            <path class="st5" fill="#9F413C" stroke="#9F413C" stroke-width="0px" stroke-miterlimit="10" d="M209.2,169.5c12.5,0,24.9,0,37.4,0c0.5,0,1.1,0,1.6,0c0.6,0,0.8,0.4,0.8,0.9c0,0.5-0.1,0.9-0.7,0.9
                            c-0.5,0-1.1,0-1.6,0c-24.9,0-49.9,0-74.8,0c-0.5,0-1.1,0-1.6,0c-0.6,0-0.8-0.4-0.8-0.9c0-0.5,0.1-0.9,0.7-0.9c0.6,0,1.2,0,1.9,0
                            C184.4,169.5,196.8,169.5,209.2,169.5z" style="fill-opacity: 1; stroke-opacity: 1; transition: fill-opacity 1s ease-in-out, stroke-opacity 1s ease-in-out; stroke-dasharray: 161.394, 161.394; stroke-dashoffset: 0;"></path>
                            <path class="st5" fill="#9F413C" stroke="#9F413C" stroke-width="0px" stroke-miterlimit="10" d="M209.4,177.5c12.3,0,24.6,0,36.9,0c0.6,0,1.2,0,1.9,0c0.6,0,0.7,0.4,0.7,0.9c0,0.5-0.2,0.9-0.8,0.9
                            c-0.5,0-1.1,0-1.6,0c-24.9,0-49.9,0-74.8,0c-0.5,0-1.1,0-1.6,0c-0.6,0-0.7-0.4-0.7-0.9c0-0.5,0.2-0.9,0.8-0.9c0.5,0,1.1,0,1.6,0
                            C184.4,177.5,196.9,177.5,209.4,177.5z" style="fill-opacity: 1; stroke-opacity: 1; transition: fill-opacity 1s ease-in-out, stroke-opacity 1s ease-in-out; stroke-dasharray: 161.394, 161.394; stroke-dashoffset: 0;"></path>
                            <path class="st5" fill="#9F413C" stroke="#9F413C" stroke-width="0px" stroke-miterlimit="10" d="M101.6,179.8c-12.5,0-24.9,0-37.4,0c-0.5,0-1.1,0-1.6,0c-0.6,0-0.8-0.4-0.8-0.9c0-0.5,0.1-0.9,0.7-0.9
                            c0.5,0,1.1,0,1.6,0c24.9,0,49.9,0,74.8,0c0.5,0,1.1,0,1.6,0c0.6,0,0.8,0.4,0.8,0.9c0,0.5-0.1,0.9-0.7,0.9c-0.6,0-1.2,0-1.9,0
                            C126.4,179.8,114,179.8,101.6,179.8z" style="fill-opacity: 1; stroke-opacity: 1; transition: fill-opacity 1s ease-in-out, stroke-opacity 1s ease-in-out; stroke-dasharray: 161.394, 161.394; stroke-dashoffset: 0;"></path>
                            <path class="st5" fill="#9F413C" stroke="#9F413C" d="M101.3,169.5c12.4,0,24.8,0,37.2,0c0.5,0,1.1,0,1.6,0c0.6,0,0.7,0.4,0.7,0.9c0,0.5-0.1,0.9-0.7,0.9
                            c-0.5,0-1.1,0-1.6,0c-24.8,0-49.5,0-74.3,0c-0.5,0-1.1,0-1.6,0c-0.6,0-0.7-0.4-0.7-0.9c0-0.5,0.1-0.9,0.7-0.9c0.5,0,1.1,0,1.6,0
                            C76.6,169.5,89,169.5,101.3,169.5z" style="fill-opacity: 1; stroke-opacity: 1; transition: fill-opacity 1s ease-in-out, stroke-opacity 1s ease-in-out; stroke-dasharray: 160.282, 160.282; stroke-dashoffset: 0;"></path>
                            <path class="st5" fill="#9F413C" stroke="#9F413C" stroke-width="0px" stroke-miterlimit="10" d="M209.7,185.4c12.2,0,24.5,0,36.7,0c0.6,0,1.2,0,1.9,0c0.6,0,0.7,0.4,0.7,0.9c0,0.5-0.2,0.9-0.8,0.9
                            c-0.5,0-1.1,0-1.6,0c-24.8,0-49.5,0-74.3,0c-0.5,0-1.1,0-1.6,0c-0.6,0-0.7-0.4-0.7-0.9c0-0.5,0.2-0.9,0.8-0.9c0.5,0,1.1,0,1.6,0
                            C184.8,185.4,197.2,185.4,209.7,185.4z" style="fill-opacity: 1; stroke-opacity: 1; transition: fill-opacity 1s ease-in-out, stroke-opacity 1s ease-in-out; stroke-dasharray: 160.394, 160.394; stroke-dashoffset: 0;"></path>
                            <path class="st5" fill="#9F413C" stroke="#9F413C" stroke-width="0px" stroke-miterlimit="10" d="M101.8,187.8c-12.4,0-24.8,0-37.2,0c-0.5,0-1.1,0-1.6,0c-0.6,0-0.7-0.4-0.7-0.9c0-0.5,0.1-0.9,0.7-0.9
                            c0.5,0,1.1,0,1.6,0c24.8,0,49.5,0,74.3,0c0.5,0,1.1,0,1.6,0c0.6,0,0.7,0.4,0.7,0.9c0,0.5-0.1,0.9-0.7,0.9c-0.6,0-1.2,0-1.9,0
                            C126.4,187.8,114.1,187.8,101.8,187.8z" style="fill-opacity: 1; stroke-opacity: 1; transition: fill-opacity 1s ease-in-out, stroke-opacity 1s ease-in-out; stroke-dasharray: 160.282, 160.282; stroke-dashoffset: 0;"></path>
                            <path class="st5" fill="#9F413C" stroke="#9F413C" stroke-width="0px" stroke-miterlimit="10" d="M164.7,76.4c3.3,0,6.5,0,9.8,0c0.7,0,1.4-0.2,1.4,0.9c0,1.2-0.8,0.9-1.5,0.9c-6.7,0-13.4,0-20,0
                            c-0.7,0-1.4,0.2-1.4-0.9c0-1.2,0.8-0.9,1.5-0.9C157.9,76.4,161.3,76.4,164.7,76.4z" style="fill-opacity: 1; stroke-opacity: 1; transition: fill-opacity 1s ease-in-out, stroke-opacity 1s ease-in-out; stroke-dasharray: 48.2791, 48.2791; stroke-dashoffset: 0;"></path>
                            <path class="st5" fill="#9F413C" stroke="#9F413C" stroke-width="0px" stroke-miterlimit="10" d="M306.6,78.3c-3.2,0-6.4,0-9.6,0c-0.6,0-1.7,0.5-1.7-0.8c-0.1-1.3,0.9-1,1.6-1c6.6,0,13.2,0,19.8,0
                            c0.6,0,1.5-0.3,1.5,0.8c0.1,1.3-0.9,1-1.6,1C313.3,78.3,309.9,78.3,306.6,78.3z" style="fill-opacity: 1; stroke-opacity: 1; transition: fill-opacity 1s ease-in-out, stroke-opacity 1s ease-in-out; stroke-dasharray: 48.3876, 48.3876; stroke-dashoffset: 0;"></path>
                            <path class="st5" fill="#9F413C" stroke="#9F413C" stroke-width="0px" stroke-miterlimit="10" d="M201.7,78.3c-3.3,0-6.5,0-9.8,0c-0.6,0-1.4,0.3-1.5-0.9c0-1.2,0.8-0.9,1.4-0.9c6.5,0,13.1,0,19.6,0
                            c0.6,0,1.4-0.3,1.5,0.9c0,1.2-0.8,0.9-1.4,0.9C208.2,78.3,205,78.3,201.7,78.3z" style="fill-opacity: 1; stroke-opacity: 1; transition: fill-opacity 1s ease-in-out, stroke-opacity 1s ease-in-out; stroke-dasharray: 47.4304, 47.4304; stroke-dashoffset: 0;"></path>
                            <path class="st5" fill="#9F413C" stroke="#9F413C" stroke-width="0px" stroke-miterlimit="10" d="M236.4,76.4c3.2,0,6.4,0,9.6,0c0.7,0,1.6-0.3,1.6,1c-0.1,1.2-0.9,0.8-1.5,0.8c-6.4,0-12.9,0-19.3,0
                            c-0.7,0-1.6,0.3-1.6-1c0.1-1.2,0.9-0.8,1.5-0.8C229.9,76.4,233.2,76.4,236.4,76.4z" style="fill-opacity: 1; stroke-opacity: 1; transition: fill-opacity 1s ease-in-out, stroke-opacity 1s ease-in-out; stroke-dasharray: 47.2761, 47.2761; stroke-dashoffset: 0;"></path>
                            <path class="st5" fill="#9F413C" stroke="#9F413C" stroke-width="0px" stroke-miterlimit="10" d="M270.9,76.4c3.3,0,6.5,0,9.8,0c0.6,0,1.4-0.2,1.5,0.9c0,1.2-0.8,0.9-1.4,0.9c-6.5,0-13.1,0-19.6,0
                            c-0.6,0-1.4,0.2-1.5-0.9c0-1.2,0.8-0.9,1.4-0.9C264.4,76.4,267.7,76.4,270.9,76.4z" style="fill-opacity: 1; stroke-opacity: 1; transition: fill-opacity 1s ease-in-out, stroke-opacity 1s ease-in-out; stroke-dasharray: 47.3541, 47.3541; stroke-dashoffset: 0;"></path>
                            <path class="st5" fill="#9F413C" stroke="#9F413C" stroke-width="0px" stroke-miterlimit="10" d="M343,78.3c-3.2,0-6.4,0-9.6,0c-0.7,0-1.7,0.4-1.6-1c0-1.2,0.9-0.9,1.5-0.9c6.5,0,13.1,0,19.6,0
                            c0.7,0,1.4-0.2,1.4,1c0,1.2-0.9,0.9-1.5,0.9C349.5,78.3,346.2,78.3,343,78.3z" style="fill-opacity: 1; stroke-opacity: 1; transition: fill-opacity 1s ease-in-out, stroke-opacity 1s ease-in-out; stroke-dasharray: 47.6824, 47.6824; stroke-dashoffset: 0;"></path>
                            <path class="st5" fill="#9F413C" stroke="#9F413C" stroke-width="0px" stroke-miterlimit="10" d="M128.7,76.4c3.3,0,6.5,0,9.8,0c0.6,0,1.4-0.3,1.5,0.9c0,1.2-0.8,0.9-1.4,0.9c-6.5,0-13.1,0-19.6,0
                            c-0.6,0-1.4,0.3-1.5-0.9c0-1.2,0.8-0.9,1.4-0.9C122.2,76.4,125.4,76.4,128.7,76.4z" style="fill-opacity: 1; stroke-opacity: 1; transition: fill-opacity 1s ease-in-out, stroke-opacity 1s ease-in-out; stroke-dasharray: 47.4304, 47.4304; stroke-dashoffset: 0;"></path>
                            <path class="st3" fill="#CD4C42" stroke="#CD4C42" stroke-miterlimit="10" d="M333.8,229.9c6.5,0,12.9,0.1,19.4,0c1.7,0,2,0.5,2,2.1c-0.1,12.2-0.1,24.5,0,36.7c0,1.5-0.3,2-1.9,2
                            c-13.1-0.1-26.2-0.1-39.3,0c-1.6,0-1.9-0.5-1.9-2c0.1-12.2,0.1-24.5,0-36.7c0-1.6,0.3-2.1,2-2.1
                            C320.7,229.9,327.2,229.9,333.8,229.9z" style="fill-opacity: 1; stroke-opacity: 1; transition: fill-opacity 1s ease-in-out, stroke-opacity 1s ease-in-out; stroke-dasharray: 165.332, 165.332; stroke-dashoffset: 0;"></path>
                            <path class="st3" fill="#CD4C42" stroke="#CD4C42" stroke-miterlimit="10" d="M343.9,195.8c0,4.6,0,9.2,0,13.8c0,1.4-0.2,2-1.9,2c-9.2-0.1-18.4-0.1-27.6,0c-1.5,0-2-0.4-1.9-1.9
                            c0.1-9.2,0.1-18.4,0-27.6c0-1.3,0.2-1.9,1.7-1.9c9.3,0.1,18.6,0.1,27.8,0c1.4,0,1.9,0.4,1.8,1.8
                            C343.9,186.6,343.9,191.2,343.9,195.8z" style="fill-opacity: 1; stroke-opacity: 1; transition: fill-opacity 1s ease-in-out, stroke-opacity 1s ease-in-out; stroke-dasharray: 123.224, 123.224; stroke-dashoffset: 0;"></path>
                            <path class="st5" fill="#9F413C" stroke="#9F413C" stroke-width="0px" stroke-miterlimit="10" d="M333,279.9c6.1,0,12.3,0,18.4,0c0.7,0,1.9-0.6,1.9,0.9c0,1.5-1.2,0.9-1.9,0.9c-12.5,0-24.9,0-37.4,0
                            c-0.7,0-1.9,0.6-1.9-0.9c0-1.5,1.2-0.9,1.9-0.9C320.4,279.9,326.7,279.9,333,279.9z" style="fill-opacity: 1; stroke-opacity: 1; transition: fill-opacity 1s ease-in-out, stroke-opacity 1s ease-in-out; stroke-dasharray: 85.1749, 85.1749; stroke-dashoffset: 0;"></path>
                            <path class="st5" fill="#9F413C" stroke="#9F413C" stroke-width="0px" stroke-miterlimit="10" d="M333.2,296.3c6.1,0,12.1,0,18.2,0c0.7,0,1.9-0.6,1.9,0.9c0,1.5-1.2,0.9-1.9,0.9c-12.3,0-24.6,0-36.9,0
                            c-0.7,0-1.9,0.6-1.9-0.9c0-1.5,1.2-0.9,1.9-0.9C320.7,296.3,326.9,296.3,333.2,296.3z" style="fill-opacity: 1; stroke-opacity: 1; transition: fill-opacity 1s ease-in-out, stroke-opacity 1s ease-in-out; stroke-dasharray: 84.1748, 84.1748; stroke-dashoffset: 0;"></path>
                            <path class="st5" fill="#9F413C" stroke="#9F413C" stroke-width="0px" stroke-miterlimit="10" d="M333.2,288.3c6.1,0,12.1,0,18.2,0c0.7,0,1.9-0.6,1.9,0.9c0,1.5-1.2,0.9-1.9,0.9c-12.3,0-24.6,0-36.9,0
                            c-0.7,0-1.9,0.6-1.9-0.9c0-1.5,1.2-0.9,1.9-0.9C320.7,288.3,327,288.3,333.2,288.3z" style="fill-opacity: 1; stroke-opacity: 1; transition: fill-opacity 1s ease-in-out, stroke-opacity 1s ease-in-out; stroke-dasharray: 84.1748, 84.1748; stroke-dashoffset: 0;"></path>
                            <path class="st5" fill="#9F413C" stroke="#9F413C" stroke-width="0px" stroke-miterlimit="10" d="M416.3,196.2c-1.1,0-2.2,0-3.2,0c-0.6,0-1.2,0.1-1.3-0.9c0-0.9,0.5-1,1.2-1c2.2,0,4.3,0,6.5,0
                            c0.6,0,1.2-0.1,1.3,0.9c0,0.9-0.5,1-1.2,1C418.4,196.2,417.4,196.2,416.3,196.2z" style="fill-opacity: 1; stroke-opacity: 1; transition: fill-opacity 1s ease-in-out, stroke-opacity 1s ease-in-out; stroke-dasharray: 20.3529, 20.3529; stroke-dashoffset: 0;"></path>
                            <path class="st5" d="M401.1,195.7c-1.1,0-2.2,0-3.2,0c-0.6,0-1.1-0.1-1.1-0.8c0-0.6,0.1-1,0.9-1c2.4,0,4.8,0,7.2,0
                            c0.6,0,0.8,0.3,0.8,0.8c0,0.6-0.1,1-0.9,1C403.6,195.7,402.3,195.7,401.1,195.7z" style="fill-opacity: 1; stroke-opacity: 1; transition: fill-opacity 1s ease-in-out, stroke-opacity 1s ease-in-out; stroke-dasharray: 20.1455, 20.1455; stroke-dashoffset: 0;"></path>
                            <path class="st5" fill="#9F413C" stroke="#9F413C" stroke-width="0px" stroke-miterlimit="10" d="M356.7,195.7c-1.1,0-2.2,0-3.2,0c-0.6,0-1.1-0.1-1.1-0.8c0-0.6,0.1-1,0.9-1c2.4,0,4.8,0,7.2,0
                            c0.6,0,0.8,0.3,0.8,0.8c0,0.6-0.1,1-0.9,1C359.1,195.7,357.9,195.7,356.7,195.7z" style="fill-opacity: 1; stroke-opacity: 1; transition: fill-opacity 1s ease-in-out, stroke-opacity 1s ease-in-out; stroke-dasharray: 20.1455, 20.1455; stroke-dashoffset: 0;"></path>
                            <path class="st5" fill="#9F413C" stroke="#9F413C" stroke-width="0px" stroke-miterlimit="10" d="M385.5,196.2c-1.1,0-2.2,0-3.2,0c-0.8,0-0.9-0.4-0.9-1c0-0.6,0.3-0.8,0.8-0.8c2.2,0,4.5,0,6.7,0
                            c0.8,0,0.9,0.4,0.9,1c0,0.6-0.3,0.8-0.8,0.8C387.8,196.2,386.6,196.2,385.5,196.2z" style="fill-opacity: 1; stroke-opacity: 1; transition: fill-opacity 1s ease-in-out, stroke-opacity 1s ease-in-out; stroke-dasharray: 19.1797, 19.1797; stroke-dashoffset: 0;"></path>
                            <path class="st5" fill="#9F413C" stroke="#9F413C" stroke-width="0px" stroke-miterlimit="10" d="M371.7,194.3c1,0,2,0,3,0c0.6,0,1,0.1,1,0.9c0,0.7-0.2,1-0.9,1c-2.2,0-4.3,0-6.5,0c-0.6,0-1-0.1-1-0.9
                            c0-0.9,0.5-1,1.2-1C369.6,194.3,370.6,194.3,371.7,194.3z" style="fill-opacity: 1; stroke-opacity: 1; transition: fill-opacity 1s ease-in-out, stroke-opacity 1s ease-in-out; stroke-dasharray: 19.275, 19.275; stroke-dashoffset: 0;"></path>
                            <path class="st0" fill="#888888" stroke="#888888" stroke-miterlimit="10" d="M213.1,260.3c-5.3,0-8.6-3.2-8.6-8.3c0-5.9,4.4-8.4,8.7-8.4c5.1,0,8.9,3.5,9,8.5
                            C222.4,256.8,218.5,260.3,213.1,260.3z" style="fill-opacity: 1; stroke-opacity: 1; transition: fill-opacity 1s ease-in-out, stroke-opacity 1s ease-in-out; stroke-dasharray: 54.7328, 54.7328; stroke-dashoffset: 0;"></path>
                            <path class="st1" fill="#FEFEFE" stroke="#FEFEFE" stroke-width="3px" stroke-miterlimit="10" d="M212.6,33.7c0,0.4-0.3,0.8-0.7,0.6c-0.5-0.1-0.5-0.5-0.4-0.9c0-0.4,0.2-0.6,0.6-0.5
                            C212.5,32.9,212.6,33.3,212.6,33.7z" style="fill-opacity: 1; stroke-opacity: 1; transition: fill-opacity 1s ease-in-out, stroke-opacity 1s ease-in-out; stroke-dasharray: 4.27581, 4.27581; stroke-dashoffset: 0;"></path>
                            <path class="st0" fill="#888888" stroke="#888888" stroke-miterlimit="10" d="M363.2,333.3c-3.8,0-6.3-2.4-6.2-6.2c0-3.7,2.5-5.7,6.5-6c3.6-0.3,6.1,3.1,6.2,6.2
                            C369.7,330.8,367,333.3,363.2,333.3z" style="fill-opacity: 1; stroke-opacity: 1; transition: fill-opacity 1s ease-in-out, stroke-opacity 1s ease-in-out; stroke-dasharray: 39.5351, 39.5351; stroke-dashoffset: 0;"></path>
                            <path class="st0" fill="#888888" stroke="#888888" stroke-miterlimit="10" d="M359.2,161.8c4,0,8.1,0,12.1,0c0,0.2,0,0.3,0,0.5c-4,0-8.1,0-12.1,0C359.2,162.1,359.2,161.9,359.2,161.8z" style="fill-opacity: 1; stroke-opacity: 1; transition: fill-opacity 1s ease-in-out, stroke-opacity 1s ease-in-out; stroke-dasharray: 25.2, 25.2; stroke-dashoffset: 0;"></path>
                            <path class="st0" fill="#888888" stroke="#888888" stroke-miterlimit="10" d="M356.7,162.4c-0.7,0-1-0.1-1-0.6c0-0.5,0.2-0.7,0.7-0.7c0.4,0,0.8,0.2,0.8,0.6
                            C357.3,162.1,356.9,162.4,356.7,162.4z" style="fill-opacity: 1; stroke-opacity: 1; transition: fill-opacity 1s ease-in-out, stroke-opacity 1s ease-in-out; stroke-dasharray: 4.58454, 4.58454; stroke-dashoffset: 0;"></path>
                            <path class="st1" fill="#FEFEFE" stroke="#FEFEFE" stroke-width="3px" stroke-miterlimit="10" d="M399.5,309.3c0-14.9,0-29.8,0-44.7c0-1.7,0.4-2.2,2.2-2.2c19.6,0.1,39.1,0.1,58.7,0c1.8,0,2.2,0.5,2.2,2.2
                            c-0.1,29.9,0,59.7,0,89.6c0,1.6-0.4,2.1-2,2.1c-19.6-0.1-39.3-0.1-58.9,0c-1.7,0-2-0.5-2-2.1C399.5,339.3,399.5,324.3,399.5,309.3z" style="fill-opacity: 1; stroke-opacity: 1; transition: fill-opacity 1s ease-in-out, stroke-opacity 1s ease-in-out; stroke-dasharray: 311.145, 311.145; stroke-dashoffset: 0;"></path>
                            <path class="st0" fill="#888888" stroke="#888888" stroke-miterlimit="10" d="M432.7,359.5c3.8,0,6.3,2.4,6.2,6.2c0,3.7-2.5,5.7-6.5,6c-3.6,0.3-6.1-3.1-6.2-6.2
                            C426.3,362,428.9,359.5,432.7,359.5z" style="fill-opacity: 1; stroke-opacity: 1; transition: fill-opacity 1s ease-in-out, stroke-opacity 1s ease-in-out; stroke-dasharray: 39.5046, 39.5046; stroke-dashoffset: 0;"></path>
                            <path class="st0" fill="#888888" stroke="#888888" stroke-miterlimit="10" d="M440.1,254.5c-4.2,0-8.4,0-12.6,0c4.2-1.1,8.4-0.7,12.6-0.7C440.1,254,440.1,254.3,440.1,254.5z" style="fill-opacity: 1; stroke-opacity: 1; transition: fill-opacity 1s ease-in-out, stroke-opacity 1s ease-in-out; stroke-dasharray: 25.9621, 25.9621; stroke-dashoffset: 0;"></path>
                            <path class="st6" fill="#E7E7E7" stroke="#E7E7E7" stroke-width="0px" stroke-miterlimit="10" d="M213.3,259.3c-4.6,0-7.9-3.2-7.9-7.6c0-3.5,4-7.3,7.7-7.4c3.9-0.1,8.4,3.9,8.2,7.6
                            C221.1,255.7,218.5,259.3,213.3,259.3z" style="fill-opacity: 1; stroke-opacity: 1; transition: fill-opacity 1s ease-in-out, stroke-opacity 1s ease-in-out; stroke-dasharray: 48.2829, 48.2829; stroke-dashoffset: 0;"></path>
                            <path class="st6" fill="#E7E7E7" stroke="#E7E7E7" stroke-width="0px" stroke-miterlimit="10" d="M363.1,332.3c-2.8,0-5.2-2.3-5.2-5.1c0-2.8,2.3-5.2,5.1-5.2c3.2,0,5.7,2.4,5.6,5.3
                            C368.6,330.1,366.2,332.3,363.1,332.3z" style="fill-opacity: 1; stroke-opacity: 1; transition: fill-opacity 1s ease-in-out, stroke-opacity 1s ease-in-out; stroke-dasharray: 33.0295, 33.0295; stroke-dashoffset: 0;"></path>
                            <path class="st3" fill="#CD4C42" stroke="#CD4C42" stroke-miterlimit="10" d="M431.2,327.2c-4.8,0-9.5,0-14.3,0c-1.3,0-1.9-0.2-1.9-1.7c0.1-9.2,0.1-18.4,0-27.6c0-1.2,0.3-1.6,1.6-1.6
                            c9.9,0,19.8,0,29.7,0c1.3,0,1.6,0.4,1.5,1.6c0,9.2-0.1,18.4,0,27.6c0,1.6-0.6,1.7-1.9,1.7C441,327.1,436.1,327.2,431.2,327.2z" style="fill-opacity: 1; stroke-opacity: 1; transition: fill-opacity 1s ease-in-out, stroke-opacity 1s ease-in-out; stroke-dasharray: 125.346, 125.346; stroke-dashoffset: 0;"></path>
                            <path class="st3" fill="#CD4C42" stroke="#CD4C42" stroke-miterlimit="10" d="M427.7,278.3c0,2.4,0,4.8,0,7.2c0,1.1-0.4,1.5-1.5,1.4c-4.8,0-9.7-0.1-14.5,0c-1.2,0-1.4-0.5-1.4-1.5
                            c0-4.8,0.1-9.5,0-14.3c0-1.2,0.4-1.6,1.6-1.6c4.8,0.1,9.5,0.1,14.3,0c1.3,0,1.5,0.5,1.5,1.7C427.6,273.6,427.7,275.9,427.7,278.3z" style="fill-opacity: 1; stroke-opacity: 1; transition: fill-opacity 1s ease-in-out, stroke-opacity 1s ease-in-out; stroke-dasharray: 67.6429, 67.6429; stroke-dashoffset: 0;"></path>
                            <path class="st5" fill="#9F413C" stroke="#9F413C" stroke-width="0px" stroke-miterlimit="10" d="M423.5,347.8c7,0.1,14.1-0.8,21.1-0.5c0.5,0,1.1,0,1.6,0c0.7,0,0.6,0.5,0.6,1c0,0.4-0.1,0.8-0.6,0.8
                            c-0.3,0-0.6,0-0.9,0c-9.5-0.3-18.9,0.8-28.4,0.4c-0.7,0-1.9,0.6-1.9-0.9c0-1.5,1.2-0.9,1.9-0.9
                            C419.1,347.7,421.3,347.8,423.5,347.8z" style="fill-opacity: 1; stroke-opacity: 1; transition: fill-opacity 1s ease-in-out, stroke-opacity 1s ease-in-out; stroke-dasharray: 66.3418, 66.3418; stroke-dashoffset: 0;"></path>
                            <path class="st5" fill="#9F413C" stroke="#9F413C" stroke-width="0px" stroke-miterlimit="10" d="M431,343.1c-4.7,0-9.5,0-14.2,0c-0.6,0-1.7,0.5-1.7-0.9c0-1.4,1-0.9,1.7-0.9c9.5,0,19,0,28.5,0
                            c0.6,0,1.7-0.5,1.7,0.9c0,1.4-1,0.9-1.7,0.9C440.5,343.1,435.7,343.1,431,343.1z" style="fill-opacity: 1; stroke-opacity: 1; transition: fill-opacity 1s ease-in-out, stroke-opacity 1s ease-in-out; stroke-dasharray: 66.4935, 66.4935; stroke-dashoffset: 0;"></path>
                            <path class="st5" fill="#9F413C" stroke="#9F413C" stroke-width="0px" stroke-miterlimit="10" d="M431.2,334.7c4.7,0,9.3,0,14,0c0.7,0,1.7-0.4,1.7,0.9c0,1.4-1,0.9-1.7,0.9c-9.5,0-19,0-28.5,0
                            c-0.7,0-1.7,0.4-1.7-0.9c0-1.4,1-0.9,1.7-0.9C421.6,334.7,426.4,334.7,431.2,334.7z" style="fill-opacity: 1; stroke-opacity: 1; transition: fill-opacity 1s ease-in-out, stroke-opacity 1s ease-in-out; stroke-dasharray: 66.4345, 66.4345; stroke-dashoffset: 0;"></path>
                            <path class="st5" fill="#9F413C" stroke="#9F413C" stroke-width="0px" stroke-miterlimit="10" d="M443.6,274.8c-1.9,0-3.9,0-5.8,0c-0.6,0-1.2,0.1-1.3-0.9c0-0.9,0.5-1,1.2-1c4,0,8.1,0,12.1,0
                            c0.6,0,1.2-0.1,1.3,0.9c0,1.2-0.7,1-1.4,1C447.7,274.8,445.7,274.8,443.6,274.8z" style="fill-opacity: 1; stroke-opacity: 1; transition: fill-opacity 1s ease-in-out, stroke-opacity 1s ease-in-out; stroke-dasharray: 31.6073, 31.6073; stroke-dashoffset: 0;"></path>
                            <path class="st5" fill="#9F413C" stroke="#9F413C" stroke-width="0px" stroke-miterlimit="10" d="M443.8,279c-2,0-4,0-6,0c-0.7,0-1.2,0-1.2-1c0-1,0.6-0.9,1.2-0.9c4,0,8.1,0,12.1,0c0.7,0,1.2,0,1.2,1
                            c0,1-0.6,0.9-1.2,0.9C447.8,279,445.8,279,443.8,279z" style="fill-opacity: 1; stroke-opacity: 1; transition: fill-opacity 1s ease-in-out, stroke-opacity 1s ease-in-out; stroke-dasharray: 31.5236, 31.5236; stroke-dashoffset: 0;"></path>
                            <path class="st5" fill="#9F413C" stroke="#9F413C" stroke-width="0px" stroke-miterlimit="10" d="M443.6,283.7c-1.9,0-3.9,0-5.8,0c-0.7,0-1.2,0-1.2-0.9c0-0.9,0.6-0.9,1.2-0.9c4,0,8.1,0,12.1,0
                            c0.7,0,1.2,0,1.2,0.9c0,0.9-0.6,0.9-1.2,0.9C447.8,283.7,445.7,283.7,443.6,283.7z" style="fill-opacity: 1; stroke-opacity: 1; transition: fill-opacity 1s ease-in-out, stroke-opacity 1s ease-in-out; stroke-dasharray: 31.29, 31.29; stroke-dashoffset: 0;"></path>
                            <path class="st6" fill="#E7E7E7" stroke="#E7E7E7" stroke-width="0px" stroke-miterlimit="10" d="M432.7,370.7c-3,0-5.5-2.3-5.5-5.1c0-2.9,2.5-5.2,5.7-5.2c2.8,0,5.1,2.4,5.1,5.2
                            C437.9,368.5,435.6,370.7,432.7,370.7z" style="fill-opacity: 1; stroke-opacity: 1; transition: fill-opacity 1s ease-in-out, stroke-opacity 1s ease-in-out; stroke-dasharray: 33.1269, 33.1269; stroke-dashoffset: 0;"></path>
                        </svg>