<svg id="svg__speed" xmlns="http://www.w3.org/2000/svg" viewBox="0 0 407.1 301.1">
                            <path class="st0" fill="#A4A4A4" stroke="#A4A4A4" stroke-width="3px" stroke-miterlimit="10" d="M277.6,51.8c64.5-1.2,122.4,52.3,121.8,122.3c-0.6,66.6-54.1,120.6-121.8,120.5
                            c-65.4-0.1-121.2-51.8-121.3-121.6C156.1,103.5,213.1,51.1,277.6,51.8z" style="fill-opacity: 1; stroke-opacity: 1; transition: fill-opacity 1s ease-in-out, stroke-opacity 1s ease-in-out; stroke-dasharray: 764.263, 764.263; stroke-dashoffset: 0;"></path>
                            <path class="st1" fill="#CD4C42" stroke="#CD4C42" stroke-width="3px" stroke-miterlimit="10" d="M6,131.9c2.9,0,4.3,0,5.8,0c47.1,0,94.2,0.1,141.4-0.1c4.4,0,5.3,0.7,3.7,5.1c-3,8.3-4.8,17-5.2,25.8
                            c-0.1,2.6-1,3.4-3.5,3.4c-35.1-0.1-70.3-0.1-105.4,0c-1.6,0-2.9-0.3-4-1.5C28.2,154,17.6,143.4,6,131.9z" style="fill-opacity: 1; stroke-opacity: 1; transition: fill-opacity 1s ease-in-out, stroke-opacity 1s ease-in-out; stroke-dasharray: 344.129, 344.129; stroke-dashoffset: 0;"></path>
                            <path class="st2" fill="#B63A34" stroke="#B63A34" stroke-width="3px" stroke-miterlimit="10" d="M34.2,215.3c15.4,0,30.5,0.1,45.6,0c24.5-0.1,48.9-0.3,73.4-0.7c3.1,0,4.6,0.7,5.7,3.9
                            c3.2,9,8.9,16.7,14.3,24.4c1.2,1.7,2.4,3.5,4.2,6.1c-4.9,0-8.8,0-12.7,0c-31,0.3-61.9,0.5-92.9,0.9c-3.1,0-5.3-0.8-7.4-3.1
                            C54.7,236.5,44.7,226.3,34.2,215.3z" style="fill-opacity: 1; stroke-opacity: 1; transition: fill-opacity 1s ease-in-out, stroke-opacity 1s ease-in-out; stroke-dasharray: 319.919, 319.919; stroke-dashoffset: 0;"></path>
                            <path class="st3" fill="#C0443E" stroke="#C0443E" stroke-width="3px" stroke-miterlimit="10" d="M54.1,173.9c11.5,0,21.4,0,31.4,0c20.8,0,41.6,0.1,62.4-0.1c3,0,4.1,0.4,4.1,3.9c-0.1,8.8,0.5,17.6,2.1,26.3
                            c0.5,3,0.3,4.1-3.1,4c-19.8-0.1-39.6-0.1-59.4-0.1c-1.7,0-3.2-0.1-4.5-1.5C76.4,196,65.8,185.5,54.1,173.9z" style="fill-opacity: 1; stroke-opacity: 1; transition: fill-opacity 1s ease-in-out, stroke-opacity 1s ease-in-out; stroke-dasharray: 244.133, 244.133; stroke-dashoffset: 0;"></path>
                            <path class="st4" fill="#B6B6B6" stroke="#B6B6B6" stroke-width="3px" stroke-miterlimit="10" d="M264.6,40.8c-1.7-1.7-4.1-0.6-6.1-1.5c-9.2-3.8-7.6-11.8-7.7-19.2c0-7.6,2.2-11.4,7.7-13.6
                            c1.8-0.7,3.6-0.7,5.4-0.7c11.3,0,22.6,0,33.9,0c8.4,0,12.9,4.5,13,12.9c0,0.8,0,1.7,0,2.5c0,14.8,0,14.8-13.3,19.8
                            c-7.4,1.1-14.8,0.3-22.2,0.4C271.8,41.4,268.1,42.3,264.6,40.8z" style="fill-opacity: 1; stroke-opacity: 1; transition: fill-opacity 1s ease-in-out, stroke-opacity 1s ease-in-out; stroke-dasharray: 168.777, 168.777; stroke-dashoffset: 0;"></path>
                            <path class="st5" fill="#9D9C9C" stroke="#9D9C9C" stroke-width="3px" stroke-miterlimit="10" d="M384.1,97c-3.8,0.1-6.8-1.4-9.4-4c-3.8-3.8-7.6-7.5-11.3-11.3c-5.3-5.6-5.6-12.9-0.8-17.9
                            c5.1-5.2,12.4-4.9,18.2,0.7c3.9,3.8,7.9,7.7,11.6,11.7c3.8,4,4.5,8.8,2.3,13.9C392.7,94.7,388.9,96.7,384.1,97z" style="fill-opacity: 1; stroke-opacity: 1; transition: fill-opacity 1s ease-in-out, stroke-opacity 1s ease-in-out; stroke-dasharray: 111.793, 111.793; stroke-dashoffset: 0;"></path>
                            <path class="st5" fill="#9D9C9C" stroke="#9D9C9C" stroke-width="3px" stroke-miterlimit="10" d="M172.6,96c-5.6,0.2-9.3-2.2-11.5-6.9c-2.2-4.7-1.3-9.3,2-13c4.4-4.8,9-9.4,13.7-13.8c4-3.7,11.1-3.7,15.3-0.4
                            c4.5,3.5,6.4,10.5,3.3,15.2c-4.5,6.8-10.6,12.3-17,17.4C176.7,95.9,174.5,96.2,172.6,96z" style="fill-opacity: 1; stroke-opacity: 1; transition: fill-opacity 1s ease-in-out, stroke-opacity 1s ease-in-out; stroke-dasharray: 111.873, 111.873; stroke-dashoffset: 0;"></path>
                            <path class="st6" fill="#9E9D9D" stroke="#9E9D9D" stroke-width="3px" stroke-miterlimit="10" d="M264.6,40.8c11-1.4,22-1.7,33,0.2c2.2,5.2,1.3,7-3.9,7c-8.6,0.1-17.3,0.1-25.9,0
                            C262.8,47.9,261.7,45.1,264.6,40.8z" style="fill-opacity: 1; stroke-opacity: 1; transition: fill-opacity 1s ease-in-out, stroke-opacity 1s ease-in-out; stroke-dasharray: 80.728, 80.728; stroke-dashoffset: 0;"></path>
                            <path class="st7" fill="#F1F1F1" stroke="#F1F1F1" stroke-width="3px" stroke-miterlimit="10" d="M385.7,157.8c2.1,13.3,2.1,26.6-1.4,39.6c-12,45-40.7,73.4-86.2,82.9c-32.5,6.8-62.3-1.4-88.4-22
                            c-21.5-17-34.9-39.4-39.4-66.2c-5.7-33.8,2.6-64.4,25.4-90.5c23.4-26.7,53.2-38.9,88.6-37.6c1.6,0.1,3.4-0.3,4.7,1
                            c1.3,1.5,1.4,3.3,1.4,5.2c0,25.6,0.3,51.1-0.1,76.7c0,2.6-1.1,4.8-2.8,6.7c-3.7,4.1-6.8,8.6-10.5,12.7c-1,1.1-1.8,2.4-2.6,3.7
                            c-1.5,2.7-1.3,5.2,1.2,7.1c2.4,1.9,4.4,0.4,6.1-1.3c4.7-4.5,8.3-9.9,12.4-14.9c2-2.5,4.1-4.8,7.6-5.2c12.5,0.2,24.9,1.1,37.4,0.8
                            c13.2-0.2,26.3-0.1,39.5,0C381.1,156.3,383.6,156,385.7,157.8z" style="fill-opacity: 1; stroke-opacity: 1; transition: fill-opacity 1s ease-in-out, stroke-opacity 1s ease-in-out; stroke-dasharray: 780.764, 780.764; stroke-dashoffset: 0;"></path>
                            <path class="st1" fill="#CD4C42" stroke="#CD4C42" stroke-width="3px" stroke-miterlimit="10" d="M289.1,148.9c-0.1-28-0.1-56-0.2-84c14.8,0.4,28.5,5.2,41.1,12.3c30,16.8,48.3,42.4,55.3,76.1
                            c0.3,1.4,0.3,3,0.4,4.5c-22.6-0.1-45.3-0.2-67.9-0.3c-6.1,0-12.3-0.4-18.4-0.6c-0.9-2.4,1-3.7,2.2-5.1
                            c11.3-14.2,22.8-28.1,34.3-42.1c1.3-1.6,2.6-3.1,3.2-5c0.7-2.4,0.6-4.7-1.7-6.2c-2.5-1.6-4.5-0.5-6.1,1.4c-3.9,4.3-7.4,9-11.1,13.5
                            c-8.9,10.9-17.9,21.9-26.7,32.9C292.3,147.4,291.3,149.1,289.1,148.9z" style="fill-opacity: 1; stroke-opacity: 1; transition: fill-opacity 1s ease-in-out, stroke-opacity 1s ease-in-out; stroke-dasharray: 460.763, 460.763; stroke-dashoffset: 0;"></path>
                            <path class="st8" fill="#545454" stroke="#545454" stroke-width="3px" stroke-miterlimit="10" d="M289.1,148.9c9.8-11.9,19.7-23.8,29.5-35.8c3.8-4.6,7.6-9.3,11.3-13.9c2.3-2.9,4.9-4.6,8.5-1.9
                            c3,2.2,3.6,6.2,0.9,9.7c-5.1,6.6-10.5,12.9-15.6,19.5c-8,10.2-16.8,19.7-24.2,30.4c-6,5.8-10.6,12.7-16,19c-2.5,3-5.1,5-8.8,2.2
                            c-3.3-2.4-3.6-6.3-0.7-10.1C279,161.6,284.1,155.3,289.1,148.9z" style="fill-opacity: 1; stroke-opacity: 1; transition: fill-opacity 1s ease-in-out, stroke-opacity 1s ease-in-out; stroke-dasharray: 220.172, 220.172; stroke-dashoffset: 0;"></path>
                        </svg>
